<svg xmlns="http://www.w3.org/2000/svg" width="1440" height="900" viewBox="0 0 1440 900">
  <defs>
    <radialGradient id="rg1" cx="20%" cy="50%" r="55%">
      <stop offset="0%" stop-color="#166534" stop-opacity="0.45"/>
      <stop offset="100%" stop-color="#050a1a" stop-opacity="0"/>
    </radialGradient>
    <radialGradient id="rg2" cx="80%" cy="20%" r="50%">
      <stop offset="0%" stop-color="#4ade80" stop-opacity="0.12"/>
      <stop offset="100%" stop-color="#050a1a" stop-opacity="0"/>
    </radialGradient>
    <radialGradient id="rg3" cx="60%" cy="80%" r="50%">
      <stop offset="0%" stop-color="#166534" stop-opacity="0.3"/>
      <stop offset="100%" stop-color="#050a1a" stop-opacity="0"/>
    </radialGradient>
  </defs>

  <!-- Base -->
  <rect width="1440" height="900" fill="#050a1a"/>

  <!-- Radial gradients -->
  <rect width="1440" height="900" fill="url(#rg1)"/>
  <rect width="1440" height="900" fill="url(#rg2)"/>
  <rect width="1440" height="900" fill="url(#rg3)"/>

  <!-- Grid lines vertical -->
  <g stroke="rgba(74,222,128,0.04)" stroke-width="1">
    <line x1="80" y1="0" x2="80" y2="900"/>
    <line x1="160" y1="0" x2="160" y2="900"/>
    <line x1="240" y1="0" x2="240" y2="900"/>
    <line x1="320" y1="0" x2="320" y2="900"/>
    <line x1="400" y1="0" x2="400" y2="900"/>
    <line x1="480" y1="0" x2="480" y2="900"/>
    <line x1="560" y1="0" x2="560" y2="900"/>
    <line x1="640" y1="0" x2="640" y2="900"/>
    <line x1="720" y1="0" x2="720" y2="900"/>
    <line x1="800" y1="0" x2="800" y2="900"/>
    <line x1="880" y1="0" x2="880" y2="900"/>
    <line x1="960" y1="0" x2="960" y2="900"/>
    <line x1="1040" y1="0" x2="1040" y2="900"/>
    <line x1="1120" y1="0" x2="1120" y2="900"/>
    <line x1="1200" y1="0" x2="1200" y2="900"/>
    <line x1="1280" y1="0" x2="1280" y2="900"/>
    <line x1="1360" y1="0" x2="1360" y2="900"/>
  </g>

  <!-- Grid lines horizontal -->
  <g stroke="rgba(74,222,128,0.04)" stroke-width="1">
    <line x1="0" y1="80" x2="1440" y2="80"/>
    <line x1="0" y1="160" x2="1440" y2="160"/>
    <line x1="0" y1="240" x2="1440" y2="240"/>
    <line x1="0" y1="320" x2="1440" y2="320"/>
    <line x1="0" y1="400" x2="1440" y2="400"/>
    <line x1="0" y1="480" x2="1440" y2="480"/>
    <line x1="0" y1="560" x2="1440" y2="560"/>
    <line x1="0" y1="640" x2="1440" y2="640"/>
    <line x1="0" y1="720" x2="1440" y2="720"/>
    <line x1="0" y1="800" x2="1440" y2="800"/>
    <line x1="0" y1="880" x2="1440" y2="880"/>
  </g>

  <!-- Glowing dots -->
  <g fill="rgba(74,222,128,0.5)">
    <circle cx="120" cy="200" r="1.5"/>
    <circle cx="340" cy="80" r="1"/>
    <circle cx="580" cy="310" r="1.5"/>
    <circle cx="720" cy="160" r="1"/>
    <circle cx="890" cy="440" r="1.5"/>
    <circle cx="1050" cy="90" r="1"/>
    <circle cx="1200" cy="280" r="1.5"/>
    <circle cx="1380" cy="500" r="1"/>
    <circle cx="200" cy="520" r="1"/>
    <circle cx="460" cy="670" r="1.5"/>
    <circle cx="640" cy="760" r="1"/>
    <circle cx="810" cy="580" r="1.5"/>
    <circle cx="980" cy="720" r="1"/>
    <circle cx="1140" cy="640" r="1.5"/>
    <circle cx="1320" cy="740" r="1"/>
    <circle cx="60" cy="780" r="1.5"/>
    <circle cx="280" cy="860" r="1"/>
    <circle cx="760" cy="40" r="1.5"/>
    <circle cx="1000" cy="340" r="1"/>
    <circle cx="1260" cy="160" r="1.5"/>
  </g>

  <!-- Slightly brighter dots -->
  <g fill="rgba(74,222,128,0.25)">
    <circle cx="400" cy="450" r="2"/>
    <circle cx="900" cy="200" r="2"/>
    <circle cx="1100" cy="500" r="2"/>
    <circle cx="200" cy="300" r="2"/>
    <circle cx="650" cy="600" r="2"/>
    <circle cx="1350" cy="300" r="2"/>
    <circle cx="100" cy="650" r="2"/>
    <circle cx="500" cy="820" r="2"/>
    <circle cx="1200" cy="780" r="2"/>
  </g>
</svg>
