<?xml version="1.0" encoding="UTF-8"?>
<svg version="1.1" xmlns="http://www.w3.org/2000/svg" width="500" height="500">
<path d="M0 0 C-1.47643357 4.87601652 -3.49924971 9.23591905 -5.8125 13.75 C-6.34327148 14.79800781 -6.34327148 14.79800781 -6.88476562 15.8671875 C-7.5917536 17.26313461 -8.30021666 18.65833578 -9.01025391 20.05273438 C-10.35337893 22.6952517 -11.67737648 25.34717345 -13 28 C-13.66666667 29.33333333 -14.33333333 30.66666667 -15 32 C-17.95767626 30.85345654 -20.77441808 29.63443138 -23.5625 28.125 C-36.30431503 21.74213956 -50.08311354 18.94090812 -64 23 C-64 23.66 -64 24.32 -64 25 C-64.66 25 -65.32 25 -66 25 C-68.00356948 29.13236205 -68.4901127 32.42561479 -68 37 C-66.20437595 39.75329021 -64.94745078 41.52627461 -62 43 C-62 43.66 -62 44.32 -62 45 C-61.29488281 45.26941406 -60.58976562 45.53882813 -59.86328125 45.81640625 C-56.8814137 47.04901999 -54.05553771 48.46025384 -51.1875 49.9375 C-47.87311161 51.61281661 -44.63582999 53.22425422 -41.125 54.4375 C-34.82478293 56.64390513 -28.93414728 59.96715379 -23 63 C-21.66752743 63.66838543 -20.33465215 64.33597752 -19 65 C-19 65.66 -19 66.32 -19 67 C-18.30519531 67.20753906 -17.61039062 67.41507812 -16.89453125 67.62890625 C-13.0839934 69.43389786 -10.61195773 71.94908086 -7.6875 74.9375 C-7.13771484 75.47568359 -6.58792969 76.01386719 -6.02148438 76.56835938 C-2 80.61981755 -2 80.61981755 -2 84 C-1.34 84 -0.68 84 0 84 C0.64690922 85.6037331 1.29248764 87.20800306 1.9375 88.8125 C2.29714844 89.70582031 2.65679687 90.59914063 3.02734375 91.51953125 C7.17411888 102.09464051 5.66102244 115.44923053 2 126 C-0.29537188 130.9273983 -2.98800689 135.48201034 -6 140 C-6.66 140 -7.32 140 -8 140 C-8 140.66 -8 141.32 -8 142 C-8.66 142 -9.32 142 -10 142 C-10 142.66 -10 143.32 -10 144 C-11.65 144.66 -13.3 145.32 -15 146 C-15 146.66 -15 147.32 -15 148 C-17.35114592 149.13169701 -19.70559335 150.25541381 -22.0625 151.375 C-22.71927734 151.69210937 -23.37605469 152.00921875 -24.05273438 152.3359375 C-45.60373164 162.52754212 -72.31375653 160.74329722 -94.56640625 153.4296875 C-104.41363204 149.32947745 -114.00030148 144.08689616 -122 137 C-121.40165275 132.85701333 -119.99335715 129.81805623 -117.9375 126.1875 C-117.38964844 125.21167969 -116.84179688 124.23585938 -116.27734375 123.23046875 C-115.64505859 122.12638672 -115.64505859 122.12638672 -115 121 C-114.34 121 -113.68 121 -113 121 C-112.89558594 120.443125 -112.79117187 119.88625 -112.68359375 119.3125 C-111.86560723 116.54536844 -110.58803171 114.44681859 -109.0625 112 C-107.23237877 109.0502223 -105.5006156 106.13171952 -104 103 C-99.25 104.875 -99.25 104.875 -97 106 C-97 106.66 -97 107.32 -97 108 C-96.32066406 108.24878906 -95.64132812 108.49757813 -94.94140625 108.75390625 C-92.11858413 109.94976316 -89.50217139 111.35757715 -86.83813477 112.86938477 C-76.88361211 118.46360912 -68.08695787 121.44997863 -56.5625 120.875 C-55.88775635 120.84156494 -55.2130127 120.80812988 -54.51782227 120.77368164 C-50.25110131 120.43151122 -47.52614791 119.36783072 -44 117 C-43.34 117 -42.68 117 -42 117 C-41.5359375 115.824375 -41.5359375 115.824375 -41.0625 114.625 C-40 112 -40 112 -39 110 C-38.66578045 104.3707837 -38.66578045 104.3707837 -40 99 C-41.32351553 98.31404894 -42.65860778 97.65029927 -44 97 C-45.23824544 96.13789564 -46.46663726 95.26154941 -47.6875 94.375 C-52.64336659 91.02226267 -57.89643479 88.60311232 -63.31884766 86.12060547 C-70.71502002 82.71989788 -77.86135081 78.90703362 -85 75 C-85 74.34 -85 73.68 -85 73 C-85.7425 72.731875 -86.485 72.46375 -87.25 72.1875 C-89.89061949 71.04723249 -91.85552844 69.90619694 -94 68 C-94 67.34 -94 66.68 -94 66 C-94.66 66 -95.32 66 -96 66 C-96 65.34 -96 64.68 -96 64 C-96.66 64 -97.32 64 -98 64 C-106.75148868 51.88442932 -109.27141565 39.86077662 -107.375 25.1875 C-106.20107788 18.48060669 -103.3204395 12.88908138 -100 7 C-99.34 7 -98.68 7 -98 7 C-98 6.01 -98 5.02 -98 4 C-97.34 4 -96.68 4 -96 4 C-96 3.34 -96 2.68 -96 2 C-95.34 2 -94.68 2 -94 2 C-94 1.34 -94 0.68 -94 0 C-93.34 0 -92.68 0 -92 0 C-92 -0.66 -92 -1.32 -92 -2 C-90.35 -2.66 -88.7 -3.32 -87 -4 C-87 -4.66 -87 -5.32 -87 -6 C-84.98407347 -7.1337692 -82.96200253 -8.25661641 -80.9375 -9.375 C-79.81214844 -10.00148437 -78.68679688 -10.62796875 -77.52734375 -11.2734375 C-54.86148388 -22.36791155 -18.98491279 -15.90914479 0 0 Z " fill="#6EC572" transform="translate(385,164)"/>
<path d="M0 0 C39.27 0 78.54 0 119 0 C119 11.55 119 23.1 119 35 C105.8 35 92.6 35 79 35 C79.00523682 39.02372803 79.01047363 43.04745605 79.01586914 47.19311523 C79.0324013 60.45251697 79.04352055 73.71191853 79.05181217 86.97132778 C79.05697523 95.01450054 79.06401812 103.05766357 79.07543945 111.10083008 C79.08538598 118.1087296 79.09185335 125.11662208 79.09408849 132.12452847 C79.09539566 135.83743192 79.09848184 139.5503152 79.10573006 143.2632122 C79.11374332 147.40131411 79.11399116 151.53938061 79.11352539 155.67749023 C79.11712067 156.91754318 79.12071594 158.15759613 79.12442017 159.43522644 C79.1230455 160.55568359 79.12167084 161.67614075 79.12025452 162.83055115 C79.12117631 163.81041709 79.1220981 164.79028303 79.12304783 165.79984188 C79 168 79 168 78 169 C75.27275721 169.10099488 72.57137477 169.13970529 69.84375 169.1328125 C68.61754944 169.13424759 68.61754944 169.13424759 67.36657715 169.13571167 C65.63484622 169.13639345 63.90311276 169.13453929 62.17138672 169.13037109 C59.51133518 169.12502279 56.8514525 169.13031612 54.19140625 169.13671875 C52.51302046 169.13605797 50.83463477 169.1347768 49.15625 169.1328125 C48.35521851 169.13483673 47.55418701 169.13686096 46.72888184 169.13894653 C41.11495079 169.11495079 41.11495079 169.11495079 40 168 C39.90375407 166.27907347 39.87812402 164.55416618 39.87974548 162.83055115 C39.87837082 161.71009399 39.87699615 160.58963684 39.87557983 159.43522644 C39.88097275 157.57514702 39.88097275 157.57514702 39.88647461 155.67749023 C39.88632858 154.38011932 39.88618256 153.08274841 39.8860321 151.74606323 C39.88574414 148.17804071 39.89164068 144.61005152 39.89860606 141.04203677 C39.90483979 137.3170938 39.90544341 133.59215014 39.90663147 129.86720276 C39.90974473 122.80882637 39.91795805 115.7504654 39.92798096 108.69209582 C39.93914226 100.65837029 39.94465259 92.62464404 39.94967639 84.5909127 C39.96014067 68.06059801 39.97848608 51.53030456 40 35 C26.8 35 13.6 35 0 35 C0 23.45 0 11.9 0 0 Z " fill="#267854" transform="translate(139,151)"/>
<path d="M0 0 C-1.47643357 4.87601652 -3.49924971 9.23591905 -5.8125 13.75 C-6.34327148 14.79800781 -6.34327148 14.79800781 -6.88476562 15.8671875 C-7.5917536 17.26313461 -8.30021666 18.65833578 -9.01025391 20.05273438 C-10.35337893 22.6952517 -11.67737648 25.34717345 -13 28 C-13.66666667 29.33333333 -14.33333333 30.66666667 -15 32 C-17.95767626 30.85345654 -20.77441808 29.63443138 -23.5625 28.125 C-35.39031627 22.19999635 -46.92729496 20.74860183 -60 21 C-59.67 20.34 -59.34 19.68 -59 19 C-56.93359375 18.3671875 -56.93359375 18.3671875 -54.4375 17.875 C-53.61121094 17.70742187 -52.78492188 17.53984375 -51.93359375 17.3671875 C-51.29550781 17.24601562 -50.65742188 17.12484375 -50 17 C-50 17.66 -50 18.32 -50 19 C-46.37 19 -42.74 19 -39 19 C-39 19.66 -39 20.32 -39 21 C-36.03 20.505 -36.03 20.505 -33 20 C-33 20.66 -33 21.32 -33 22 C-31.9790625 22.185625 -31.9790625 22.185625 -30.9375 22.375 C-27.5722588 23.09100877 -24.29986575 24.02945125 -21 25 C-21 25.66 -21 26.32 -21 27 C-19.35 27 -17.7 27 -16 27 C-14.8662308 24.98407347 -13.74338359 22.96200253 -12.625 20.9375 C-11.99851562 19.81214844 -11.37203125 18.68679687 -10.7265625 17.52734375 C-8.99075446 13.98111149 -7.9606891 10.80879266 -7 7 C-6.34 7 -5.68 7 -5 7 C-4.76571687 2.2102679 -4.76571687 2.2102679 -7 -2 C-8.32 -2 -9.64 -2 -11 -2 C-11 -2.99 -11 -3.98 -11 -5 C-13.97 -5.33 -16.94 -5.66 -20 -6 C-20 -6.66 -20 -7.32 -20 -8 C-24.50353262 -9.75747614 -28.17639811 -10.19294408 -33 -10 C-33 -10.99 -33 -11.98 -33 -13 C-40.92 -12.505 -40.92 -12.505 -49 -12 C-49 -12.66 -49 -13.32 -49 -14 C-51.06271639 -13.6889315 -53.12516466 -13.37608484 -55.1875 -13.0625 C-56.91033203 -12.80146484 -56.91033203 -12.80146484 -58.66796875 -12.53515625 C-66.22180934 -11.32193683 -76.32797883 -9.67202117 -82 -4 C-83.66617115 -3.95936168 -85.33388095 -3.957279 -87 -4 C-87 -4.66 -87 -5.32 -87 -6 C-84.98407347 -7.1337692 -82.96200253 -8.25661641 -80.9375 -9.375 C-79.81214844 -10.00148437 -78.68679688 -10.62796875 -77.52734375 -11.2734375 C-54.86148388 -22.36791155 -18.98491279 -15.90914479 0 0 Z " fill="#FAFDB8" transform="translate(385,164)"/>
<path d="M0 0 C39.27 0 78.54 0 119 0 C119 11.55 119 23.1 119 35 C106.79 35 94.58 35 82 35 C82 34.67 82 34.34 82 34 C87.61 34 93.22 34 99 34 C99 33.34 99 32.68 99 32 C104.61 32 110.22 32 116 32 C117.38308781 29.23382437 117.11210196 26.98982 117.09765625 23.8984375 C117.09443359 22.68671875 117.09121094 21.475 117.08789062 20.2265625 C117.07951172 18.95554688 117.07113281 17.68453125 117.0625 16.375 C117.05798828 15.09625 117.05347656 13.8175 117.04882812 12.5 C117.03701203 9.33328708 117.02053815 6.16666644 117 3 C114.04160645 2.97310551 111.08345573 2.95321259 108.125 2.9375 C107.28324219 2.92912109 106.44148438 2.92074219 105.57421875 2.91210938 C104.76855469 2.90888672 103.96289062 2.90566406 103.1328125 2.90234375 C102.38918457 2.89710693 101.64555664 2.89187012 100.87939453 2.88647461 C98.90867432 2.88213364 98.90867432 2.88213364 97 4 C96.14019531 3.855625 95.28039062 3.71125 94.39453125 3.5625 C90.43484945 2.9063502 86.6880012 2.92719743 82.6875 3 C80.11861206 3.04550732 77.57023568 3.04743226 75 3 C74.505 2.505 74.505 2.505 74 2 C71.73079775 1.8758378 69.4577355 1.82196252 67.18530273 1.79467773 C66.47314606 1.78477814 65.76098938 1.77487854 65.0272522 1.76467896 C62.66273372 1.73297788 60.29819511 1.70827276 57.93359375 1.68359375 C56.29833948 1.66303164 54.66309062 1.64203537 53.02784729 1.62062073 C48.71571214 1.56532328 44.40352842 1.51594799 40.09130859 1.46777344 C35.69429176 1.41761428 31.2973458 1.36189913 26.90039062 1.30664062 C18.26698527 1.19896525 9.63351999 1.09805444 1 1 C1 10.24 1 19.48 1 29 C0.67 29 0.34 29 0 29 C0 19.43 0 9.86 0 0 Z " fill="#559174" transform="translate(139,151)"/>
<path d="M0 0 C2.84746922 0.61737164 5.18281739 1.50654315 7.75 2.875 C10.96095768 4.52752584 14.18415341 5.79586178 17.5859375 7.015625 C23.21389574 9.31052059 28.59063691 12.23536246 34 15 C35.33247257 15.66838543 36.66534785 16.33597752 38 17 C38 17.66 38 18.32 38 19 C38.69480469 19.20753906 39.38960938 19.41507813 40.10546875 19.62890625 C43.9160066 21.43389786 46.38804227 23.94908086 49.3125 26.9375 C49.86228516 27.47568359 50.41207031 28.01386719 50.97851562 28.56835938 C55 32.61981755 55 32.61981755 55 36 C55.66 36 56.32 36 57 36 C57.64690922 37.6037331 58.29248764 39.20800306 58.9375 40.8125 C59.29714844 41.70582031 59.65679687 42.59914062 60.02734375 43.51953125 C61.83069043 48.1184274 62.15141459 51.98830043 62.125 56.875 C62.13080078 57.93654297 62.13080078 57.93654297 62.13671875 59.01953125 C62.12966857 62.80548044 61.90907953 66.32039237 61 70 C60.67 70 60.34 70 60 70 C59.93268677 69.00202393 59.93268677 69.00202393 59.86401367 67.98388672 C59.65166679 64.94650654 59.41976611 61.91091928 59.1875 58.875 C59.11724609 57.82828125 59.04699219 56.7815625 58.97460938 55.703125 C58.41127705 48.5826044 56.98737115 43.98105673 53 38 C52.01 38 51.02 38 50 38 C48.70863376 35.67554076 48.00892153 34.12192754 47.8125 31.4375 C47.544375 30.633125 47.27625 29.82875 47 29 C44.68191636 27.96514123 42.34824702 26.9644586 40 26 C39.63837971 24.67405895 39.30271961 23.34061543 39 22 C37.02253397 21.26919734 35.01927511 20.60578253 33 20 C31.125 18.375 31.125 18.375 30 17 C28.02 17.66 26.04 18.32 24 19 C24.33 16.69 24.66 14.38 25 12 C24.22914063 11.96261719 23.45828125 11.92523438 22.6640625 11.88671875 C21.66117187 11.82097656 20.65828125 11.75523437 19.625 11.6875 C18.62726563 11.62949219 17.62953125 11.57148438 16.6015625 11.51171875 C15.74304688 11.34285156 14.88453125 11.17398438 14 11 C13.34 10.01 12.68 9.02 12 8 C9.94074861 7.27617533 9.94074861 7.27617533 8 7 C8 6.34 8 5.68 8 5 C6.865625 4.731875 5.73125 4.46375 4.5625 4.1875 C3.386875 3.795625 2.21125 3.40375 1 3 C0.67 2.01 0.34 1.02 0 0 Z " fill="#B3E19C" transform="translate(328,212)"/>
<path d="M0 0 C1.4540625 0.0309375 1.4540625 0.0309375 2.9375 0.0625 C2.9375 7.72916667 2.9375 15.39583333 2.9375 23.0625 C2.2775 22.4025 1.6175 21.7425 0.9375 21.0625 C0.56238281 21.61679687 0.18726563 22.17109375 -0.19921875 22.7421875 C-5.22187331 29.85234333 -5.22187331 29.85234333 -10.0625 31.0625 C-10.7225 31.3925 -11.3825 31.7225 -12.0625 32.0625 C-13.77483688 31.9754796 -15.48425406 31.82152838 -17.1875 31.625 C-18.09757812 31.52316406 -19.00765625 31.42132813 -19.9453125 31.31640625 C-20.64398438 31.23261719 -21.34265625 31.14882813 -22.0625 31.0625 C-19.50477448 28.50477448 -17.57276133 28.75463541 -14.09765625 28.4140625 C-11.32474493 27.93505671 -9.36977686 26.62330494 -7.0625 25.0625 C-6.4025 25.0625 -5.7425 25.0625 -5.0625 25.0625 C-4.753125 24.27875 -4.44375 23.495 -4.125 22.6875 C-3.0625 20.0625 -3.0625 20.0625 -2.0625 18.0625 C-1.83391886 16.0250237 -1.65225722 13.98209697 -1.5 11.9375 C-1.41621094 10.84179688 -1.33242188 9.74609375 -1.24609375 8.6171875 C-1.15521484 7.35261719 -1.15521484 7.35261719 -1.0625 6.0625 C-1.7225 5.7325 -2.3825 5.4025 -3.0625 5.0625 C-3.75 3.0625 -3.75 3.0625 -4.0625 1.0625 C-3.0625 0.0625 -3.0625 0.0625 0 0 Z " fill="#55C66C" transform="translate(348.0625,255.9375)"/>
<path d="M0 0 C4.29 0 8.58 0 13 0 C13 11.55 13 23.1 13 35 C0.79 35 -11.42 35 -24 35 C-24 34.67 -24 34.34 -24 34 C-18.39 34 -12.78 34 -7 34 C-7 33.34 -7 32.68 -7 32 C-1.39 32 4.22 32 10 32 C11.38308781 29.23382437 11.11210196 26.98982 11.09765625 23.8984375 C11.09443359 22.68671875 11.09121094 21.475 11.08789062 20.2265625 C11.07951172 18.95554688 11.07113281 17.68453125 11.0625 16.375 C11.05798828 15.09625 11.05347656 13.8175 11.04882812 12.5 C11.03701203 9.33328708 11.02053815 6.16666644 11 3 C7.37 2.34 3.74 1.68 0 1 C0 0.67 0 0.34 0 0 Z " fill="#5FC286" transform="translate(245,151)"/>
<path d="M0 0 C1.65 0.66 3.3 1.32 5 2 C4.67 2.99 4.34 3.98 4 5 C3.360625 5.268125 2.72125 5.53625 2.0625 5.8125 C-0.94320115 7.54305521 -1.05734393 9.76803634 -2 13 C-2.66 13.66 -3.32 14.32 -4 15 C-4 15.99 -4 16.98 -4 18 C-4.66 18 -5.32 18 -6 18 C-6.680625 19.11375 -7.36125 20.2275 -8.0625 21.375 C-8.44535156 22.00148438 -8.82820313 22.62796875 -9.22265625 23.2734375 C-9.47917969 23.84320313 -9.73570312 24.41296875 -10 25 C-9.67 25.66 -9.34 26.32 -9 27 C-10.98 27.99 -12.96 28.98 -15 30 C-13 21.42857143 -13 21.42857143 -11 18 C-10.34 18 -9.68 18 -9 18 C-8.89558594 17.443125 -8.79117187 16.88625 -8.68359375 16.3125 C-7.86560723 13.54536844 -6.58803171 11.44681859 -5.0625 9 C-3.23237877 6.0502223 -1.5006156 3.13171952 0 0 Z " fill="#3B8566" transform="translate(281,267)"/>
<path d="M0 0 C1.2065625 0.0309375 1.2065625 0.0309375 2.4375 0.0625 C2.1075 0.7225 1.7775 1.3825 1.4375 2.0625 C0.4475 2.0625 -0.5425 2.0625 -1.5625 2.0625 C-1.5625 2.7225 -1.5625 3.3825 -1.5625 4.0625 C-2.2225 4.0625 -2.8825 4.0625 -3.5625 4.0625 C-5.56606948 8.19486205 -6.0526127 11.48811479 -5.5625 16.0625 C-3.76687595 18.81579021 -2.50995078 20.58877461 0.4375 22.0625 C0.4375 22.7225 0.4375 23.3825 0.4375 24.0625 C2.9125 25.0525 2.9125 25.0525 5.4375 26.0625 C3.10535852 27.26878008 0.94107861 28.2279738 -1.5625 29.0625 C-1.8925 29.7225 -2.2225 30.3825 -2.5625 31.0625 C-2.52125 29.94875 -2.48 28.835 -2.4375 27.6875 C-2.15128141 24.01883975 -2.15128141 24.01883975 -4.5625 22.0625 C-5.2225 21.7325 -5.8825 21.4025 -6.5625 21.0625 C-6.5625 20.4025 -6.5625 19.7425 -6.5625 19.0625 C-7.2225 19.0625 -7.8825 19.0625 -8.5625 19.0625 C-8.5625 13.7825 -8.5625 8.5025 -8.5625 3.0625 C-6.9125 2.4025 -5.2625 1.7425 -3.5625 1.0625 C-2.5625 0.0625 -2.5625 0.0625 0 0 Z " fill="#A5DAA0" transform="translate(322.5625,184.9375)"/>
<path d="M0 0 C-0.99 0.33 -1.98 0.66 -3 1 C-3 1.99 -3 2.98 -3 4 C-3.99 4.495 -3.99 4.495 -5 5 C-5.33 5.99 -5.66 6.98 -6 8 C-6.598125 8.12375 -7.19625 8.2475 -7.8125 8.375 C-11.06100142 9.30314326 -12.169052 11.253578 -14 14 C-14 14.99 -14 15.98 -14 17 C-15.65 17.66 -17.3 18.32 -19 19 C-19 20.32 -19 21.64 -19 23 C-19.99 23 -20.98 23 -22 23 C-21.54738642 21.56068883 -21.08767021 20.12361001 -20.625 18.6875 C-20.36976563 17.88699219 -20.11453125 17.08648437 -19.8515625 16.26171875 C-19 14 -19 14 -17 11 C-16.34 11 -15.68 11 -15 11 C-15 10.01 -15 9.02 -15 8 C-14.34 8 -13.68 8 -13 8 C-13 7.34 -13 6.68 -13 6 C-12.34 6 -11.68 6 -11 6 C-11 5.34 -11 4.68 -11 4 C-10.34 4 -9.68 4 -9 4 C-9 3.34 -9 2.68 -9 2 C-5.5647952 -0.29013653 -4.014669 -0.17842973 0 0 Z " fill="#ABDE98" transform="translate(302,160)"/>
<path d="M0 0 C6.09355384 0.27082462 10.22872374 2.55325188 15.44921875 5.625 C17.6941911 6.83515355 19.51247109 7.53395243 22 8 C21.67 9.32 21.34 10.64 21 12 C20.34 12 19.68 12 19 12 C19 11.34 19 10.68 19 10 C18.34 10 17.68 10 17 10 C17 10.66 17 11.32 17 12 C16.34 12 15.68 12 15 12 C15 11.34 15 10.68 15 10 C13.68 10.33 12.36 10.66 11 11 C10.34 9.68 9.68 8.36 9 7 C8.01 7.495 8.01 7.495 7 8 C7 6.68 7 5.36 7 4 C6.1028125 4.309375 6.1028125 4.309375 5.1875 4.625 C3 5 3 5 0 3 C0 2.01 0 1.02 0 0 Z " fill="#329766" transform="translate(290,275)"/>
<path d="M0 0 C0.33 0.66 0.66 1.32 1 2 C4.63 2 8.26 2 12 2 C12 2.66 12 3.32 12 4 C13.98 3.67 15.96 3.34 18 3 C18 3.66 18 4.32 18 5 C18.680625 5.12375 19.36125 5.2475 20.0625 5.375 C23.4277412 6.09100877 26.70013425 7.02945125 30 8 C30 8.66 30 9.32 30 10 C32.475 10.495 32.475 10.495 35 11 C35 11.33 35 11.66 35 12 C30.46476682 12.25306734 27.60892539 11.65702204 23.5625 9.625 C12.98043661 4.58998597 2.59957214 3.77693131 -9 4 C-8 2 -8 2 -6.15234375 1.3671875 C-5.05599609 1.12355469 -5.05599609 1.12355469 -3.9375 0.875 C-3.20402344 0.70742187 -2.47054688 0.53984375 -1.71484375 0.3671875 C-1.14894531 0.24601563 -0.58304687 0.12484375 0 0 Z " fill="#E9F5B1" transform="translate(334,181)"/>
<path d="M0 0 C2.97 0.33 5.94 0.66 9 1 C0.78610147 7.88517965 -10.58414401 9.79015675 -21 10 C-21 9.34 -21 8.68 -21 8 C-17.7 7.67 -14.4 7.34 -11 7 C-10.67 5.68 -10.34 4.36 -10 3 C-8.63875 3.0309375 -8.63875 3.0309375 -7.25 3.0625 C-4.57327412 3.0110245 -2.53011948 2.7784983 0 2 C0 1.34 0 0.68 0 0 Z " fill="#51A579" transform="translate(357,312)"/>
<path d="M0 0 C4.50235595 -0.02472359 9.00467236 -0.04287119 13.50708008 -0.05493164 C15.0386626 -0.0599596 16.57024033 -0.06678284 18.10180664 -0.07543945 C20.30356022 -0.08757229 22.50525033 -0.09324367 24.70703125 -0.09765625 C25.39150833 -0.10281754 26.07598541 -0.10797882 26.78120422 -0.11329651 C29.80906242 -0.1136536 32.10150142 0.03383381 35 1 C34.67 1.66 34.34 2.32 34 3 C33.37351563 2.98839844 32.74703125 2.97679687 32.1015625 2.96484375 C30.87566406 2.95130859 30.87566406 2.95130859 29.625 2.9375 C28.40683594 2.92009766 28.40683594 2.92009766 27.1640625 2.90234375 C24.95062858 2.85533666 24.95062858 2.85533666 23 4 C21 3.66666667 19 3.33333333 17 3 C14.20690739 2.87853135 11.42006591 2.9046466 8.625 2.9375 C7.52091797 2.94426758 7.52091797 2.94426758 6.39453125 2.95117188 C4.59631842 2.96284858 2.79814803 2.98077989 1 3 C0.67 2.01 0.34 1.02 0 0 Z " fill="#53B375" transform="translate(213,151)"/>
<path d="M0 0 C2.97 0.33 5.94 0.66 9 1 C8.979375 1.804375 8.95875 2.60875 8.9375 3.4375 C8.70366379 5.93354885 8.70366379 5.93354885 10 7 C12.28684338 7.2819396 14.57363273 7.44777005 16.87109375 7.62109375 C19 8 19 8 21 10 C14.05118619 10.3506878 7.22791543 10.52314147 1 7 C-0.625 4.4375 -0.625 4.4375 -1 2 C-0.67 1.34 -0.34 0.68 0 0 Z " fill="#367C60" transform="translate(294,311)"/>
<path d="M0 0 C0.94875 0.165 1.8975 0.33 2.875 0.5 C5.80168901 1.0526635 5.80168901 1.0526635 8 1 C8 1.66 8 2.32 8 3 C7.34 3.66 6.68 4.32 6 5 C6.99 6.485 6.99 6.485 8 8 C9.98 7.67 11.96 7.34 14 7 C14.33 7.99 14.66 8.98 15 10 C15.66 10.33 16.32 10.66 17 11 C16.01 12.485 16.01 12.485 15 14 C10.15409462 13.55946315 6.51858133 11.25494123 3 8 C3 7.34 3 6.68 3 6 C2.34 6 1.68 6 1 6 C0.67 4.02 0.34 2.04 0 0 Z " fill="#4BBC76" transform="translate(288,224)"/>
<path d="M0 0 C0.33 0 0.66 0 1 0 C1.56517478 6.24204144 1.5371344 10.70257314 -2.5625 15.6640625 C-4.52567544 17.48853533 -6.4292241 18.3051957 -9 19 C-9.66 19.33 -10.32 19.66 -11 20 C-12.71233688 19.9129796 -14.42175406 19.75902838 -16.125 19.5625 C-17.03507812 19.46066406 -17.94515625 19.35882813 -18.8828125 19.25390625 C-19.58148438 19.17011719 -20.28015625 19.08632813 -21 19 C-18.44227448 16.44227448 -16.51026133 16.69213541 -13.03515625 16.3515625 C-10.26224493 15.87255671 -8.30727686 14.56080494 -6 13 C-5.34 13 -4.68 13 -4 13 C-2.14038586 8.7494534 -1.06795435 4.50066475 0 0 Z " fill="#58BE82" transform="translate(347,268)"/>
<path d="M0 0 C0.72445312 -0.00322266 1.44890625 -0.00644531 2.1953125 -0.00976562 C5.9807029 0.02864701 7.78295894 0.16780596 11 2.3125 C4.4 2.6425 -2.2 2.9725 -9 3.3125 C-9 11.5625 -9 19.8125 -9 28.3125 C-9.33 28.3125 -9.66 28.3125 -10 28.3125 C-10.25451584 24.20949077 -10.47426446 20.10534524 -10.6875 16 C-10.76033203 14.83275391 -10.83316406 13.66550781 -10.90820312 12.46289062 C-10.96298828 11.34462891 -11.01777344 10.22636719 -11.07421875 9.07421875 C-11.13182373 8.04256592 -11.18942871 7.01091309 -11.2487793 5.94799805 C-11 3.3125 -11 3.3125 -9.72583008 1.47509766 C-6.77837314 -0.51044343 -3.42582611 -0.0761972 0 0 Z " fill="#3AA46C" transform="translate(227,182.6875)"/>
<path d="M0 0 C2.84746922 0.61737164 5.18281739 1.50654315 7.75 2.875 C10.55869608 4.32922208 13.32594537 5.52298099 16.3125 6.5625 C19.63184979 7.85648382 20.74903088 8.49969276 23 11 C21.54257537 11.08096803 20.08387193 11.13917774 18.625 11.1875 C17.81289063 11.22230469 17.00078125 11.25710937 16.1640625 11.29296875 C15.44992187 11.19628906 14.73578125 11.09960938 14 11 C13.34 10.01 12.68 9.02 12 8 C9.94074861 7.27617533 9.94074861 7.27617533 8 7 C8 6.34 8 5.68 8 5 C6.865625 4.731875 5.73125 4.46375 4.5625 4.1875 C3.386875 3.795625 2.21125 3.40375 1 3 C0.67 2.01 0.34 1.02 0 0 Z " fill="#AADB9E" transform="translate(328,212)"/>
<path d="M0 0 C3 1 3 1 5 3 C5 4.32 5 5.64 5 7 C5.66 7.33 6.32 7.66 7 8 C7.33 7.34 7.66 6.68 8 6 C9.2077558 9.62326739 8.54311128 10.64146369 7 14 C6.01 14 5.02 14 4 14 C1.28608722 9.22642128 -0.56561146 5.65611463 0 0 Z " fill="#54BE7B" transform="translate(279,208)"/>
<path d="M0 0 C0.66 0.33 1.32 0.66 2 1 C1.98952637 1.68626465 1.97905273 2.3725293 1.96826172 3.07958984 C1.92678126 6.17802289 1.90069931 9.27639761 1.875 12.375 C1.85824219 13.45523438 1.84148437 14.53546875 1.82421875 15.6484375 C1.81777344 16.6796875 1.81132812 17.7109375 1.8046875 18.7734375 C1.79421387 19.72653809 1.78374023 20.67963867 1.77294922 21.66162109 C1.76868133 24.1923213 1.76868133 24.1923213 4 26 C3.69728039 27.34061543 3.36162029 28.67405895 3 30 C3.33 30.99 3.66 31.98 4 33 C2.68 33 1.36 33 0 33 C-0.96674186 29.0256168 -1.04657372 25.46662709 -0.87890625 21.38671875 C-0.83056641 20.13955078 -0.78222656 18.89238281 -0.73242188 17.60742188 C-0.67634766 16.31384766 -0.62027344 15.02027344 -0.5625 13.6875 C-0.51029297 12.37458984 -0.45808594 11.06167969 -0.40429688 9.70898438 C-0.2748336 6.47240261 -0.13987458 3.23614579 0 0 Z " fill="#306454" transform="translate(140,152)"/>
<path d="M0 0 C4.29 0 8.58 0 13 0 C13 9.9 13 19.8 13 30 C12.67 30 12.34 30 12 30 C11.67 21.09 11.34 12.18 11 3 C7.37 2.34 3.74 1.68 0 1 C0 0.67 0 0.34 0 0 Z " fill="#82C88B" transform="translate(245,151)"/>
<path d="M0 0 C0.33 0 0.66 0 1 0 C1.626259 4.38381303 2.04100457 8.62636272 1.9609375 13.0546875 C1.94869141 13.76560547 1.93644531 14.47652344 1.92382812 15.20898438 C1.89156141 16.64033581 1.84622071 18.07145883 1.78710938 19.50195312 C1.66021135 23.52598409 1.66021135 23.52598409 3.5078125 26.9765625 C4.24644531 27.48316406 4.24644531 27.48316406 5 28 C4.67 28.99 4.34 29.98 4 31 C2.68 31 1.36 31 0 31 C0 20.77 0 10.54 0 0 Z " fill="#1E3534" transform="translate(179,288)"/>
<path d="M0 0 C-3.29780321 3.82545172 -6.40524849 5.17943808 -11 7 C-11.33 7.33 -11.66 7.66 -12 8 C-13.66617115 8.04063832 -15.33388095 8.042721 -17 8 C-17 7.34 -17 6.68 -17 6 C-15.11076602 4.98758753 -13.21330056 3.99052575 -11.3125 3 C-10.25675781 2.443125 -9.20101563 1.88625 -8.11328125 1.3125 C-5.07773738 0.0327726 -3.23973174 -0.28851043 0 0 Z " fill="#D2ECA0" transform="translate(315,152)"/>
<path d="M0 0 C1.32 0.33 2.64 0.66 4 1 C4 1.66 4 2.32 4 3 C4.763125 2.814375 5.52625 2.62875 6.3125 2.4375 C9 2 9 2 12 3 C12.33 3.99 12.66 4.98 13 6 C15.50447516 7.21869929 15.50447516 7.21869929 18 8 C17.67 8.99 17.34 9.98 17 11 C14.34781758 9.74118512 11.70376131 8.46885956 9.0625 7.1875 C8.30775391 6.83107422 7.55300781 6.47464844 6.77539062 6.10742188 C5.69741211 5.58051758 5.69741211 5.58051758 4.59765625 5.04296875 C3.93258057 4.72352295 3.26750488 4.40407715 2.58227539 4.07495117 C1 3 1 3 0 0 Z " fill="#6DC786" transform="translate(323,248)"/>
<path d="M0 0 C1.2065625 0.0309375 1.2065625 0.0309375 2.4375 0.0625 C2.1075 0.7225 1.7775 1.3825 1.4375 2.0625 C0.4475 2.0625 -0.5425 2.0625 -1.5625 2.0625 C-1.5625 2.7225 -1.5625 3.3825 -1.5625 4.0625 C-2.2225 4.0625 -2.8825 4.0625 -3.5625 4.0625 C-4.2225 5.7125 -4.8825 7.3625 -5.5625 9.0625 C-6.2225 9.0625 -6.8825 9.0625 -7.5625 9.0625 C-7.5625 11.3725 -7.5625 13.6825 -7.5625 16.0625 C-7.8925 16.0625 -8.2225 16.0625 -8.5625 16.0625 C-8.5625 11.7725 -8.5625 7.4825 -8.5625 3.0625 C-6.9125 2.4025 -5.2625 1.7425 -3.5625 1.0625 C-2.5625 0.0625 -2.5625 0.0625 0 0 Z " fill="#9BD88A" transform="translate(322.5625,184.9375)"/>
<path d="M0 0 C1.32 0 2.64 0 4 0 C4.185625 0.5775 4.37125 1.155 4.5625 1.75 C6.70551122 5.10427843 9.48822563 6.17907996 13 8 C13 8.33 13 8.66 13 9 C7.00708997 8.58669586 3.74963401 7.68096635 -1 4 C-0.67 2.68 -0.34 1.36 0 0 Z " fill="#417D68" transform="translate(278,306)"/>
<path d="M0 0 C0 0.33 0 0.66 0 1 C-7.01805857 2.10087193 -13.90565767 2.09733092 -21 2 C-21.33 2.99 -21.66 3.98 -22 5 C-24.31 4.67 -26.62 4.34 -29 4 C-20.18044506 -0.83653013 -9.76368885 -0.25656409 0 0 Z " fill="#F2F9BF" transform="translate(340,148)"/>
<path d="M0 0 C3.875 0.875 3.875 0.875 5 2 C5.33 1.34 5.66 0.68 6 0 C6.66 0 7.32 0 8 0 C8.33 1.32 8.66 2.64 9 4 C8.01 4.495 8.01 4.495 7 5 C7.66 5.33 8.32 5.66 9 6 C9 6.66 9 7.32 9 8 C5.12793601 7.42636089 2.81534937 5.65894107 0 3 C0 2.01 0 1.02 0 0 Z " fill="#457868" transform="translate(263,298)"/>
<path d="M0 0 C0.66 0.66 1.32 1.32 2 2 C2.66 1.67 3.32 1.34 4 1 C4 2.32 4 3.64 4 5 C3.34 5 2.68 5 2 5 C2 5.99 2 6.98 2 8 C1.01 8.495 1.01 8.495 0 9 C-0.65772428 12.02934491 -0.65772428 12.02934491 -1 15 C-1.66 14.67 -2.32 14.34 -3 14 C-2.855625 13.154375 -2.71125 12.30875 -2.5625 11.4375 C-2.16806729 9.02707791 -1.81760562 6.60924286 -1.5 4.1875 C-1 1 -1 1 0 0 Z " fill="#4AC06D" transform="translate(379,289)"/>
<path d="M0 0 C0.41507812 0.48984375 0.83015625 0.9796875 1.2578125 1.484375 C-1.3821875 1.484375 -4.0221875 1.484375 -6.7421875 1.484375 C-6.7421875 0.824375 -6.7421875 0.164375 -6.7421875 -0.515625 C-7.63421875 -0.34804687 -8.52625 -0.18046875 -9.4453125 -0.0078125 C-11.20101563 0.29769531 -11.20101563 0.29769531 -12.9921875 0.609375 C-14.73242188 0.92261719 -14.73242188 0.92261719 -16.5078125 1.2421875 C-19.77773066 1.48703644 -21.06711584 1.27217041 -23.7421875 -0.515625 C-2.68747249 -2.33798055 -2.68747249 -2.33798055 0 0 Z " fill="#F5FBA3" transform="translate(342.7421875,150.515625)"/>
<path d="M0 0 C0 3.15987325 -0.38214873 4.36034793 -2 7 C-5 9 -5 9 -7 10 C-7 11.32 -7 12.64 -7 14 C-7.99 14 -8.98 14 -10 14 C-9.60246179 12.53633658 -9.18118616 11.0791065 -8.75 9.625 C-8.51796875 8.81289062 -8.2859375 8.00078125 -8.046875 7.1640625 C-6.76116201 4.50628266 -5.67869737 4.0882208 -3 3 C-1.29078411 1.4587688 -1.29078411 1.4587688 0 0 Z " fill="#97D792" transform="translate(290,169)"/>
<path d="M0 0 C1.06723961 3.46222615 1.10173486 6.64039266 1.0625 10.25 C1.05347656 11.32765625 1.04445313 12.4053125 1.03515625 13.515625 C1.02355469 14.33546875 1.01195312 15.1553125 1 16 C0.01 15.34 -0.98 14.68 -2 14 C-2.29296875 10.9609375 -2.29296875 10.9609375 -2.1875 7.375 C-2.16042969 6.18648438 -2.13335937 4.99796875 -2.10546875 3.7734375 C-2.07066406 2.85820312 -2.03585937 1.94296875 -2 1 C-1.34 0.67 -0.68 0.34 0 0 Z " fill="#44C169" transform="translate(350,263)"/>
<path d="M0 0 C0.33 0.66 0.66 1.32 1 2 C0.67 2.99 0.34 3.98 0 5 C-0.66 5 -1.32 5 -2 5 C-2.20970559 9.14093698 -2.20970559 9.14093698 -1 13 C-2.98 13.99 -4.96 14.98 -7 16 C-5 7.42857143 -5 7.42857143 -3 4 C-2.34 4 -1.68 4 -1 4 C-0.67 2.68 -0.34 1.36 0 0 Z " fill="#598D79" transform="translate(273,281)"/>
<path d="M0 0 C3.3 0.99 6.6 1.98 10 3 C9.67 3.99 9.34 4.98 9 6 C8.34 6 7.68 6 7 6 C7 5.34 7 4.68 7 4 C6.34 4 5.68 4 5 4 C5 4.66 5 5.32 5 6 C4.34 6 3.68 6 3 6 C3 5.34 3 4.68 3 4 C1.68 4.33 0.36 4.66 -1 5 C-1 1 -1 1 0 0 Z " fill="#21945B" transform="translate(302,281)"/>
<path d="M0 0 C2.475 0.99 2.475 0.99 5 2 C4 5 4 5 2.125 6.1875 C0 7 0 7 -3 7 C-2.690625 6.401875 -2.38125 5.80375 -2.0625 5.1875 C-0.89790296 2.91043228 -0.89790296 2.91043228 0 0 Z " fill="#549F7E" transform="translate(281,267)"/>
<path d="M0 0 C0.33 0.66 0.66 1.32 1 2 C3.64 2 6.28 2 9 2 C9 2.33 9 2.66 9 3 C3.06 3.33 -2.88 3.66 -9 4 C-8 2 -8 2 -6.15234375 1.3671875 C-5.05599609 1.12355469 -5.05599609 1.12355469 -3.9375 0.875 C-3.20402344 0.70742187 -2.47054688 0.53984375 -1.71484375 0.3671875 C-1.14894531 0.24601563 -0.58304687 0.12484375 0 0 Z " fill="#CBE89D" transform="translate(334,181)"/>
<path d="M0 0 C3 0.3125 3 0.3125 6 1 C6.33 1.66 6.66 2.32 7 3 C5.2984375 3.433125 5.2984375 3.433125 3.5625 3.875 C2.386875 4.24625 1.21125 4.6175 0 5 C-0.33 5.66 -0.66 6.32 -1 7 C-1.04254356 5.00045254 -1.04080783 2.99958364 -1 1 C-0.67 0.67 -0.34 0.34 0 0 Z " fill="#8BD583" transform="translate(321,209)"/>
<path d="M0 0 C2.02045442 0.60183749 4.02111039 1.27306096 6 2 C6.33 2.66 6.66 3.32 7 4 C6.34 4.66 5.68 5.32 5 6 C3.02 5.34 1.04 4.68 -1 4 C-0.67 2.68 -0.34 1.36 0 0 Z " fill="#3DBA66" transform="translate(313,240)"/>
<path d="M0 0 C2.97 0.33 5.94 0.66 9 1 C6.42910583 3.11180592 4.36939433 4.66306057 1 5 C0.34 4.34 -0.32 3.68 -1 3 C-0.67 2.01 -0.34 1.02 0 0 Z " fill="#46B37A" transform="translate(357,312)"/>
<path d="M0 0 C0.66 0 1.32 0 2 0 C1.49701212 4.40114397 -0.08772731 6.71195019 -3 10 C-3 8.02 -3 6.04 -3 4 C-2.01 3.67 -1.02 3.34 0 3 C0 2.01 0 1.02 0 0 Z " fill="#7ECB94" transform="translate(381,294)"/>
<path d="M0 0 C0.99773437 0.02320313 1.99546875 0.04640625 3.0234375 0.0703125 C4.52777344 0.09738281 4.52777344 0.09738281 6.0625 0.125 C6.83335937 0.14820313 7.60421875 0.17140625 8.3984375 0.1953125 C7.22265625 1.71484375 7.22265625 1.71484375 5.3984375 3.1953125 C2.91796875 3.26953125 2.91796875 3.26953125 0.2109375 2.8828125 C-1.14064453 2.70298828 -1.14064453 2.70298828 -2.51953125 2.51953125 C-3.55013672 2.35904297 -3.55013672 2.35904297 -4.6015625 2.1953125 C-2.6015625 0.1953125 -2.6015625 0.1953125 0 0 Z " fill="#46B076" transform="translate(330.6015625,284.8046875)"/>
<path d="M0 0 C5.28 0 10.56 0 16 0 C15.67 0.66 15.34 1.32 15 2 C14.06027344 1.98259766 14.06027344 1.98259766 13.1015625 1.96484375 C11.87566406 1.95130859 11.87566406 1.95130859 10.625 1.9375 C9.40683594 1.92009766 9.40683594 1.92009766 8.1640625 1.90234375 C5.95062858 1.85533666 5.95062858 1.85533666 4 3 C2.68 2.01 1.36 1.02 0 0 Z " fill="#5AC172" transform="translate(232,152)"/>
<path d="M0 0 C0.99 0.4021875 0.99 0.4021875 2 0.8125 C5.64939067 2.25705047 9.32245433 3.62871178 13 5 C13 5.33 13 5.66 13 6 C3.90322581 5.09032258 3.90322581 5.09032258 1 3 C0.67 2.01 0.34 1.02 0 0 Z " fill="#6FB290" transform="translate(299,278)"/>
<path d="M0 0 C-0.33 0.66 -0.66 1.32 -1 2 C-1.99 2 -2.98 2 -4 2 C-4 2.66 -4 3.32 -4 4 C-4.66 4 -5.32 4 -6 4 C-6.33 4.99 -6.66 5.98 -7 7 C-7.6875 5.1875 -7.6875 5.1875 -8 3 C-5.85915306 -0.33020635 -3.75910189 -0.30479204 0 0 Z " fill="#B9E2A3" transform="translate(325,185)"/>
<path d="M0 0 C-0.99 0.33 -1.98 0.66 -3 1 C-3 1.99 -3 2.98 -3 4 C-4.98 4 -6.96 4 -9 4 C-9 3.34 -9 2.68 -9 2 C-5.5647952 -0.29013653 -4.014669 -0.17842973 0 0 Z " fill="#B7E39B" transform="translate(302,160)"/>
<path d="M0 0 C0.66 0 1.32 0 2 0 C2 0.66 2 1.32 2 2 C2.66 2.33 3.32 2.66 4 3 C-1.94 3.495 -1.94 3.495 -8 4 C-7.67 3.01 -7.34 2.02 -7 1 C-5.5459375 1.0309375 -5.5459375 1.0309375 -4.0625 1.0625 C-1.12534105 1.35618499 -1.12534105 1.35618499 0 0 Z " fill="#219E5E" transform="translate(354,314)"/>
<path d="M0 0 C0.99 0.33 1.98 0.66 3 1 C3 2.32 3 3.64 3 5 C1.35 5.33 -0.3 5.66 -2 6 C-1.34 4.02 -0.68 2.04 0 0 Z " fill="#33B268" transform="translate(369,305)"/>
<path d="M0 0 C0.66 0.33 1.32 0.66 2 1 C1.56179109 5.55737263 1.14958831 8.57653445 -2 12 C-2 10.02 -2 8.04 -2 6 C-1.34 6 -0.68 6 0 6 C0 4.02 0 2.04 0 0 Z " fill="#9FD6A4" transform="translate(386,282)"/>
<path d="M0 0 C0.94875 0.165 1.8975 0.33 2.875 0.5 C5.80168901 1.0526635 5.80168901 1.0526635 8 1 C8 1.66 8 2.32 8 3 C6 4.625 6 4.625 4 6 C3.67 5.34 3.34 4.68 3 4 C2.01 3.67 1.02 3.34 0 3 C0 2.01 0 1.02 0 0 Z " fill="#30B562" transform="translate(288,224)"/>
<path d="M0 0 C2.50298434 2.93828597 3.46930939 5.17902761 4 9 C2.35 8.01 0.7 7.02 -1 6 C-0.67 4.02 -0.34 2.04 0 0 Z " fill="#C0E6AA" transform="translate(384,248)"/>
<path d="M0 0 C0.66 0.66 1.32 1.32 2 2 C2.66 1.67 3.32 1.34 4 1 C4 2.32 4 3.64 4 5 C2.35 5 0.7 5 -1 5 C-0.67 3.35 -0.34 1.7 0 0 Z " fill="#58C66B" transform="translate(379,289)"/>
<path d="M0 0 C0.66 0 1.32 0 2 0 C3.85776765 3.13498292 4.20140476 5.37471432 4 9 C1.18167487 7.59083743 0.97406539 5.92219617 0 3 C0 2.01 0 1.02 0 0 Z " fill="#64C37B" transform="translate(343,258)"/>
<path d="M0 0 C0.33 0.66 0.66 1.32 1 2 C3.02463255 2.65213292 3.02463255 2.65213292 5 3 C4.67 3.66 4.34 4.32 4 5 C1.4375 5.625 1.4375 5.625 -1 6 C-0.67 4.02 -0.34 2.04 0 0 Z " fill="#9ADE7E" transform="translate(353,225)"/>
<path d="M0 0 C4.95 0.99 4.95 0.99 10 2 C6.68756695 2.82810826 4.34023421 3.09278428 1 3 C0.67 2.01 0.34 1.02 0 0 Z " fill="#98D787" transform="translate(341,220)"/>
<path d="M0 0 C2.97 0.495 2.97 0.495 6 1 C6.33 1.99 6.66 2.98 7 4 C4.625 3.6875 4.625 3.6875 2 3 C1.34 2.01 0.68 1.02 0 0 Z " fill="#52B577" transform="translate(304,239)"/>
<path d="M0 0 C0.66 0.99 1.32 1.98 2 3 C1.125 5.6875 1.125 5.6875 0 8 C-0.66 8 -1.32 8 -2 8 C-1.47731534 5.23723823 -0.89130413 2.6739124 0 0 Z " fill="#35B664" transform="translate(286,214)"/>
<path d="M0 0 C-0.33 1.32 -0.66 2.64 -1 4 C-2.65 4 -4.3 4 -6 4 C-6 3.34 -6 2.68 -6 2 C-2.25 0 -2.25 0 0 0 Z " fill="#CCE9AE" transform="translate(304,156)"/>
</svg>
