<?xml version="1.0" encoding="UTF-8"?>
<svg version="1.1" xmlns="http://www.w3.org/2000/svg" width="512" height="512">
<path d="M0 0 C0.78761719 0.23235352 1.57523438 0.46470703 2.38671875 0.70410156 C16.21456304 4.85816883 28.14895313 10.63995918 40 19 C37.7515121 30.04812572 31.22719297 40.70502928 25.70898438 50.39111328 C22.36342262 56.27146321 19.3552001 62.25579144 16.47265625 68.375 C15 71 15 71 12 73 C11.35675781 72.55269531 10.71351563 72.10539062 10.05078125 71.64453125 C2.99561015 66.92430978 -4.0370578 63.85822164 -12 61 C-13.31832531 60.45129163 -14.63225978 59.89164632 -15.9375 59.3125 C-29.71603189 53.4074149 -45.4726303 52.15754154 -60 56 C-61.68384282 56.97079922 -63.35417913 57.96605057 -65 59 C-65.66 59 -66.32 59 -67 59 C-67 59.66 -67 60.32 -67 61 C-68.875 63.125 -68.875 63.125 -71 65 C-71.66 65 -72.32 65 -73 65 C-74.68885947 72.67781496 -75.27232834 78.42557221 -73 86 C-72.34 86 -71.68 86 -71 86 C-71 86.66 -71 87.32 -71 88 C-70.43667969 88.26683594 -69.87335938 88.53367187 -69.29296875 88.80859375 C-66.84332777 90.0814055 -64.61219703 91.53538565 -62.3125 93.0625 C-52.78092933 99.17805809 -42.62928158 104.61468969 -32.20703125 109.05859375 C-1.24983799 122.26334344 -1.24983799 122.26334344 9 130 C9 130.66 9 131.32 9 132 C9.99 132 10.98 132 12 132 C12 132.66 12 133.32 12 134 C12.54140625 134.061875 13.0828125 134.12375 13.640625 134.1875 C17.00451547 135.34592586 19.21537903 137.59666064 21.75 140 C22.2764209 140.49113281 22.8028418 140.98226562 23.34521484 141.48828125 C28.71430794 146.56082084 33.89288832 151.83933248 38 158 C38 158.99 38 159.98 38 161 C38.66 161 39.32 161 40 161 C40.79807198 162.68448018 41.58812301 164.37276127 42.375 166.0625 C42.81585938 167.00222656 43.25671875 167.94195312 43.7109375 168.91015625 C47.0318268 176.87022728 47.37250257 184.26352723 47.37060547 192.74829102 C47.37492752 194.90139039 47.41116106 197.05234729 47.44921875 199.20507812 C47.56712054 213.29212161 44.71221027 225.89132263 38.25 238.5 C37.83878906 239.33402344 37.42757812 240.16804687 37.00390625 241.02734375 C36.01626249 243.02559974 35.01550339 245.01580259 34 247 C33.34 247 32.68 247 32 247 C31.74863281 247.73605469 31.49726563 248.47210938 31.23828125 249.23046875 C26.9845583 258.74431599 16.63844883 264.06855782 8 269 C7.32839844 269.41121094 6.65679687 269.82242187 5.96484375 270.24609375 C-3.2815904 275.86390362 -13.61037306 278.39712504 -24 281 C-24.6489624 281.17225098 -25.2979248 281.34450195 -25.96655273 281.52197266 C-55.66108474 289.29162628 -89.75143939 285.23594433 -118 274 C-119.175625 273.608125 -120.35125 273.21625 -121.5625 272.8125 C-127.05770167 270.76399287 -132.1349255 267.80024264 -137.27734375 265.0078125 C-141.79442446 262.55657578 -146.38419749 260.25902805 -151 258 C-151 257.34 -151 256.68 -151 256 C-151.84304688 255.85498047 -151.84304688 255.85498047 -152.703125 255.70703125 C-155.53621883 254.83493944 -157.39670263 253.48323508 -159.75 251.6875 C-160.54921875 251.09324219 -161.3484375 250.49898438 -162.171875 249.88671875 C-164 248 -164 248 -164 244 C-163.16137695 242.23583984 -163.16137695 242.23583984 -161.98828125 240.4609375 C-161.56208496 239.80222656 -161.13588867 239.14351562 -160.69677734 238.46484375 C-160.23996582 237.77519531 -159.7831543 237.08554687 -159.3125 236.375 C-155.46686021 230.41731043 -151.95149361 224.46221759 -149 218 C-148.34 218 -147.68 218 -147 218 C-146.89816406 217.45859375 -146.79632813 216.9171875 -146.69140625 216.359375 C-145.82242393 213.39403419 -144.44527709 210.94475054 -142.9375 208.25 C-142.38964844 207.26515625 -141.84179688 206.2803125 -141.27734375 205.265625 C-140.85582031 204.51796875 -140.43429687 203.7703125 -140 203 C-139.34 203 -138.68 203 -138 203 C-137.87753906 202.42765625 -137.75507813 201.8553125 -137.62890625 201.265625 C-136.97237132 198.90046809 -136.06276488 196.92793203 -134.9375 194.75 C-134.57527344 194.04359375 -134.21304687 193.3371875 -133.83984375 192.609375 C-133.42412109 191.81273437 -133.42412109 191.81273437 -133 191 C-129.34233136 191.57709883 -127.71949786 192.98314512 -125.125 195.5625 C-106.58663437 212.47574917 -79.59435474 222.21460228 -54.85546875 221.96875 C-45.9823399 221.46098869 -36.91269433 218.73247823 -30 213 C-25.07881993 206.74877127 -24.26644637 200.76233118 -25 193 C-26.65884669 187.76153678 -28.86793387 184.60231406 -33 181 C-33.66 180.67 -34.32 180.34 -35 180 C-35 179.34 -35 178.68 -35 178 C-36.2684375 177.6596875 -36.2684375 177.6596875 -37.5625 177.3125 C-41 176 -41 176 -44.1875 173.65625 C-48.03844625 170.84406921 -52.05466857 169.02126058 -56.4375 167.1875 C-64.49414789 163.71328867 -72.33759654 159.92654981 -80.15136719 155.94042969 C-83.09284767 154.44405055 -86.04681294 152.97313546 -89 151.5 C-90.66666667 150.66666667 -92.33333333 149.83333333 -94 149 C-94 148.34 -94 147.68 -94 147 C-94.54140625 146.90589844 -95.0828125 146.81179687 -95.640625 146.71484375 C-98.69771088 145.78860747 -101.05769005 144.2754644 -103.75 142.5625 C-104.73484375 141.94503906 -105.7196875 141.32757813 -106.734375 140.69140625 C-107.48203125 140.13324219 -108.2296875 139.57507813 -109 139 C-109 138.34 -109 137.68 -109 137 C-109.57234375 136.7421875 -110.1446875 136.484375 -110.734375 136.21875 C-113.21128995 134.88634058 -115.1341166 133.34943882 -117.25 131.5 C-117.95640625 130.8915625 -118.6628125 130.283125 -119.390625 129.65625 C-121 128 -121 128 -121 126 C-121.66 126 -122.32 126 -123 126 C-124.2890625 124.5390625 -124.2890625 124.5390625 -125.625 122.625 C-126.07101562 121.99851563 -126.51703125 121.37203125 -126.9765625 120.7265625 C-128 119 -128 119 -128 117 C-128.66 117 -129.32 117 -130 117 C-130.959938 114.93824636 -131.91788424 112.87556531 -132.875 110.8125 C-133.40867187 109.66394531 -133.94234375 108.51539063 -134.4921875 107.33203125 C-134.98976563 106.23246094 -135.48734375 105.13289063 -136 104 C-136.35320312 103.24074219 -136.70640625 102.48148437 -137.0703125 101.69921875 C-139.6796482 94.12337434 -140.33694586 86.59012495 -140.25 78.625 C-140.23767334 77.24320557 -140.23767334 77.24320557 -140.22509766 75.83349609 C-139.97560912 60.60932976 -135.92385078 48.51701019 -129 35 C-128.34 35 -127.68 35 -127 35 C-126.76152344 34.28070313 -126.52304687 33.56140625 -126.27734375 32.8203125 C-124.80537457 29.57027657 -122.98968699 27.48153578 -120.5625 24.875 C-119.78003906 24.02679688 -118.99757813 23.17859375 -118.19140625 22.3046875 C-117.46824219 21.54414062 -116.74507813 20.78359375 -116 20 C-115.45214844 19.40445313 -114.90429688 18.80890625 -114.33984375 18.1953125 C-113 17 -113 17 -111 17 C-111 16.34 -111 15.68 -111 15 C-78.96542633 -11.44556294 -38.10614447 -11.29243062 0 0 Z " fill="#308C1B" transform="translate(414,102)"/>
<path d="M0 0 C25.66833993 -0.02254438 51.33667189 -0.04097763 77.00501919 -0.05181217 C88.92237641 -0.0569758 100.83972707 -0.06401976 112.75708008 -0.07543945 C123.14019321 -0.08538426 133.52330158 -0.09185294 143.90641934 -0.09408849 C149.40784326 -0.09539595 154.90925357 -0.09848398 160.41067314 -0.10573006 C165.58238985 -0.11248707 170.75408725 -0.11461762 175.92580795 -0.11310768 C177.82981915 -0.11338415 179.73383096 -0.11539116 181.63783836 -0.11920547 C184.22553766 -0.12413776 186.81316285 -0.12300002 189.40086365 -0.12025452 C190.16446762 -0.12316736 190.92807159 -0.1260802 191.71481508 -0.12908131 C196.88587879 -0.11412121 196.88587879 -0.11412121 198 1 C198.09887792 2.74382535 198.12799032 4.49165543 198.12939453 6.23828125 C198.13254669 7.35614014 198.13569885 8.47399902 198.13894653 9.62573242 C198.13591019 11.45068237 198.13591019 11.45068237 198.1328125 13.3125 C198.13376923 14.55169189 198.13472595 15.79088379 198.13571167 17.06762695 C198.13639374 19.69388281 198.13503538 22.32004633 198.13037109 24.94628906 C198.12467381 28.31928714 198.12795302 31.69220565 198.13394356 35.06520081 C198.1384177 38.27263677 198.13528882 41.480063 198.1328125 44.6875 C198.13483673 45.9041333 198.13686096 47.1207666 198.13894653 48.37426758 C198.13421829 50.05105591 198.13421829 50.05105591 198.12939453 51.76171875 C198.12859894 52.75131592 198.12780334 53.74091309 198.12698364 54.76049805 C198 57 198 57 197 58 C175.55 58 154.1 58 132 58 C132 131.59 132 205.18 132 281 C110.22 281 88.44 281 66 281 C66 207.41 66 133.82 66 58 C44.22 58 22.44 58 0 58 C0 38.86 0 19.72 0 0 Z " fill="#2C8319" transform="translate(44,100)"/>
<path d="M0 0 C65.01 0 130.02 0 197 0 C197 11.22 197 22.44 197 34 C191.07165292 25.10747937 195 12.68747969 195 2 C131.64 2.33 68.28 2.66 3 3 C2.37111666 9.28883343 1.84917475 15.25778751 1.8671875 21.52734375 C1.86623077 22.28294083 1.86527405 23.0385379 1.86428833 23.81703186 C1.86361515 25.3924264 1.86540839 26.96782386 1.86962891 28.54321289 C1.87504286 30.95660526 1.86962777 33.36981601 1.86328125 35.78320312 C1.86394116 37.32291708 1.8652205 38.86263091 1.8671875 40.40234375 C1.86516327 41.12107162 1.86313904 41.8397995 1.86105347 42.58030701 C1.87559501 45.66295179 2.01721948 48.05165844 3 51 C3.66 51.33 4.32 51.66 5 52 C3.515 52.495 3.515 52.495 2 53 C2 54.32 2 55.64 2 57 C23.78 57 45.56 57 68 57 C68.029729 66.98096924 68.029729 66.98096924 68.06005859 77.16357422 C68.12681824 99.09231425 68.20435814 121.02100622 68.28752708 142.94968987 C68.33771116 156.25144498 68.38415328 169.55318481 68.421875 182.85498047 C68.45475146 194.44487852 68.49455837 206.03472817 68.54279006 217.62457287 C68.56809839 223.76485886 68.58986675 229.90511256 68.60334396 236.04543686 C68.61612512 241.81883731 68.63813643 247.59212726 68.66738319 253.36546707 C68.67648998 255.48996541 68.68215637 257.61448155 68.68421364 259.73899841 C68.68751438 262.6286062 68.70293186 265.51789646 68.7215271 268.40744019 C68.718625 269.6827146 68.718625 269.6827146 68.71566427 270.98375213 C68.56864787 275.46492745 68.56864787 275.46492745 71 279 C73.46620164 279.33159285 73.46620164 279.33159285 76.36767578 279.31884766 C77.48868683 279.33871735 78.60969788 279.35858704 79.76467896 279.37905884 C80.97928802 279.39061005 82.19389709 279.40216125 83.4453125 279.4140625 C84.68546112 279.43342865 85.92560974 279.4527948 87.20333862 279.4727478 C90.50111779 279.5224881 93.79886139 279.56372477 97.09680176 279.60089111 C100.46177334 279.64089002 103.82657392 279.69200103 107.19140625 279.7421875 C113.79416107 279.83839787 120.39699011 279.92340383 127 280 C127.81364165 277.13613635 128.13289731 274.57517688 128.15821838 271.60157776 C128.16800783 270.72515121 128.17779728 269.84872467 128.18788338 268.94573975 C128.19363821 267.98983948 128.19939304 267.03393921 128.20532227 266.04907227 C128.2152162 265.03338669 128.22511013 264.01770111 128.23530388 262.97123718 C128.26702209 259.58631743 128.29177011 256.20138441 128.31640625 252.81640625 C128.33712412 250.4313882 128.35821361 248.04637336 128.37965393 245.66136169 C128.43555657 239.28060194 128.4850034 232.89980826 128.53263092 226.51898193 C128.56245062 222.56904072 128.59380705 218.61911467 128.62567139 214.66918945 C129.34628243 136.82695431 129.34628243 136.82695431 128 59 C129.32 58.67 130.64 58.34 132 58 C132 131.59 132 205.18 132 281 C110.22 281 88.44 281 66 281 C66 207.41 66 133.82 66 58 C44.22 58 22.44 58 0 58 C0 38.86 0 19.72 0 0 Z " fill="#3D7126" transform="translate(44,100)"/>
<path d="M0 0 C65.01 0 130.02 0 197 0 C197 11.22 197 22.44 197 34 C191.07165292 25.10747937 195 12.68747969 195 2 C131.64 2.33 68.28 2.66 3 3 C2.37111666 9.28883343 1.84917475 15.25778751 1.8671875 21.52734375 C1.86623077 22.28294083 1.86527405 23.0385379 1.86428833 23.81703186 C1.86361515 25.3924264 1.86540839 26.96782386 1.86962891 28.54321289 C1.87504286 30.95660526 1.86962777 33.36981601 1.86328125 35.78320312 C1.86394116 37.32291708 1.8652205 38.86263091 1.8671875 40.40234375 C1.86516327 41.12107162 1.86313904 41.8397995 1.86105347 42.58030701 C1.87559501 45.66295179 2.01721948 48.05165844 3 51 C3.66 51.33 4.32 51.66 5 52 C3.515 52.495 3.515 52.495 2 53 C2 54.32 2 55.64 2 57 C23.78 57 45.56 57 68 57 C68 76.14 68 95.28 68 115 C67.67 115 67.34 115 67 115 C67 96.19 67 77.38 67 58 C44.89 58 22.78 58 0 58 C0 38.86 0 19.72 0 0 Z " fill="#3F7338" transform="translate(44,100)"/>
<path d="M0 0 C0.33 0 0.66 0 1 0 C1.6922111 31.75345734 2.0923228 63.49995217 2.23408461 95.26026869 C2.24610187 97.93540221 2.25860596 100.61053303 2.27125931 103.2856636 C2.34906008 119.77919287 2.42054716 136.27273988 2.47680664 152.76635742 C2.50504478 161.02651115 2.54030163 169.28660379 2.58346039 177.54669338 C2.61008601 182.71694994 2.62807006 187.88713882 2.63949764 193.05745018 C2.64858172 196.23150343 2.66590866 199.40547047 2.68567657 202.5794735 C2.69317283 204.05093289 2.69723438 205.52241424 2.69767189 206.99389267 C2.69874758 208.99358903 2.71311511 210.99326533 2.72825623 212.99290466 C2.73248816 214.11167212 2.7367201 215.23043959 2.74108028 216.38310909 C2.73650552 219.1592045 2.73650552 219.1592045 5 221 C7.46620164 221.33159285 7.46620164 221.33159285 10.36767578 221.31884766 C11.48868683 221.33871735 12.60969788 221.35858704 13.76467896 221.37905884 C14.97928802 221.39061005 16.19389709 221.40216125 17.4453125 221.4140625 C18.68546112 221.43342865 19.92560974 221.4527948 21.20333862 221.4727478 C24.50111779 221.5224881 27.79886139 221.56372477 31.09680176 221.60089111 C34.46177334 221.64089002 37.82657392 221.69200103 41.19140625 221.7421875 C47.79416107 221.83839787 54.39699011 221.92340383 61 222 C61 221.34 61 220.68 61 220 C62.65 219.67 64.3 219.34 66 219 C66 220.32 66 221.64 66 223 C44.22 223 22.44 223 0 223 C0 149.41 0 75.82 0 0 Z " fill="#448F32" transform="translate(110,158)"/>
<path d="M0 0 C0.33 0 0.66 0 1 0 C2.90386898 26.85164154 3.17958925 53.65682548 3.125 80.5625 C3.12243195 81.83717258 3.12243195 81.83717258 3.11981201 83.13759613 C3.096842 93.75848186 3.05642025 104.37924026 3 115 C1.02 115.495 1.02 115.495 -1 116 C-0.67 77.72 -0.34 39.44 0 0 Z " fill="#41932F" transform="translate(173,262)"/>
<path d="M0 0 C3.45331295 3.45331295 2.33897727 8.45803763 2.37109375 13.125 C2.37085205 14.23681641 2.37085205 14.23681641 2.37060547 15.37109375 C2.37488994 17.56855164 2.41092633 19.76384782 2.44921875 21.9609375 C2.56621069 36.15262117 -0.23686531 48.79196197 -6.75 61.5 C-7.16121094 62.33402344 -7.57242187 63.16804688 -7.99609375 64.02734375 C-8.98373751 66.02559974 -9.98449661 68.01580259 -11 70 C-11.66 70 -12.32 70 -13 70 C-13.24878906 70.73476563 -13.49757813 71.46953125 -13.75390625 72.2265625 C-17.59884589 80.78426514 -26.97185761 86.73204738 -35 91 C-35.66 91 -36.32 91 -37 91 C-37 90.01 -37 89.02 -37 88 C-36.1028125 87.5978125 -36.1028125 87.5978125 -35.1875 87.1875 C-32.9700287 86.12703272 -32.9700287 86.12703272 -31.5 84.4375 C-30 83 -30 83 -27.9375 82.5625 C-27.298125 82.376875 -26.65875 82.19125 -26 82 C-25.505 81.01 -25.505 81.01 -25 80 C-24 78 -24 78 -21.875 77.25 C-21.25625 77.1675 -20.6375 77.085 -20 77 C-20 76.34 -20 75.68 -20 75 C-19.01 75 -18.02 75 -17 75 C-17 74.01 -17 73.02 -17 72 C-16.34 72 -15.68 72 -15 72 C-14.67 70.02 -14.34 68.04 -14 66 C-12.515 65.505 -12.515 65.505 -11 65 C-11 63.02 -11 61.04 -11 59 C-9.515 58.505 -9.515 58.505 -8 58 C-6.85067229 55.19053227 -6.09477195 52.47385976 -5.5 49.5 C-5 47 -5 47 -4.0625 44.25 C-2.95906885 40.87479885 -2.19039165 37.52261792 -1.46484375 34.05078125 C-1 32 -1 32 0 29 C0.08358958 26.78910055 0.10731764 24.57573922 0.09765625 22.36328125 C0.09443359 21.06455078 0.09121094 19.76582031 0.08789062 18.42773438 C0.07953531 17.05598892 0.07107037 15.68424413 0.0625 14.3125 C0.05748335 12.92903805 0.05292073 11.54557437 0.04882812 10.16210938 C0.03702529 6.77469605 0.02056019 3.38736967 0 0 Z " fill="#58A648" transform="translate(459,279)"/>
<path d="M0 0 C0.33 0 0.66 0 1 0 C1.33 35.97 1.66 71.94 2 109 C21.47 109 40.94 109 61 109 C61 108.34 61 107.68 61 107 C63.475 106.505 63.475 106.505 66 106 C66 107.32 66 108.64 66 110 C44.22 110 22.44 110 0 110 C0 73.7 0 37.4 0 0 Z " fill="#509C3F" transform="translate(110,271)"/>
<path d="M0 0 C0.33 0 0.66 0 1 0 C0.53038557 5.97193022 -1.33148867 10.12918167 -4.25 15.3125 C-5.07139736 16.80930101 -5.89171518 18.30669495 -6.7109375 19.8046875 C-7.10635742 20.52237305 -7.50177734 21.24005859 -7.90917969 21.97949219 C-9.71636602 25.32691253 -11.33147557 28.76388983 -12.9296875 32.21484375 C-14 34 -14 34 -17 36 C-22.875 32.375 -22.875 32.375 -24 29 C-23.67 28.34 -23.34 27.68 -23 27 C-21.865625 26.87625 -20.73125 26.7525 -19.5625 26.625 C-18.386875 26.41875 -17.21125 26.2125 -16 26 C-14.48705712 24.06402968 -14.48705712 24.06402968 -14 22 C-13.34 22 -12.68 22 -12 22 C-11.78085937 21.443125 -11.56171875 20.88625 -11.3359375 20.3125 C-9.21953256 15.21936291 -6.7470538 11.11370429 -3.328125 6.796875 C-1.75154579 4.66385607 -0.78986279 2.52756092 0 0 Z " fill="#297818" transform="translate(443,139)"/>
<path d="M0 0 C0.33 0.66 0.66 1.32 1 2 C0.67 2.99 0.34 3.98 0 5 C-0.66 5 -1.32 5 -2 5 C-2.66 9.29 -3.32 13.58 -4 18 C-3.34 18 -2.68 18 -2 18 C-2 18.66 -2 19.32 -2 20 C-2.99 20.33 -3.98 20.66 -5 21 C-6.41666667 23.33333333 -6.41666667 23.33333333 -7 26 C-6.34 26.99 -5.68 27.98 -5 29 C-4.31822584 30.32567199 -3.64808564 31.65753688 -3 33 C-3.99 33.495 -3.99 33.495 -5 34 C-6.51130338 32.93249206 -8.00878703 31.84539718 -9.5 30.75 C-10.3353125 30.14671875 -11.170625 29.5434375 -12.03125 28.921875 C-12.6809375 28.28765625 -13.330625 27.6534375 -14 27 C-14 23.06798952 -13.93260184 22.398043 -11.953125 19.35546875 C-11.3034375 18.33936523 -11.3034375 18.33936523 -10.640625 17.30273438 C-10.18171875 16.60470703 -9.7228125 15.90667969 -9.25 15.1875 C-8.35807378 13.80682932 -7.46743653 12.42532505 -6.578125 11.04296875 C-5.9294043 10.0382251 -5.9294043 10.0382251 -5.26757812 9.01318359 C-3.41011026 6.06312966 -1.70196176 3.04205781 0 0 Z " fill="#67AF56" transform="translate(264,323)"/>
<path d="M0 0 C0.66 0 1.32 0 2 0 C2 0.66 2 1.32 2 2 C2.66 2.33 3.32 2.66 4 3 C3.01 3.33 2.02 3.66 1 4 C1 5.32 1 6.64 1 8 C22.78 8 44.56 8 67 8 C67 27.14 67 46.28 67 66 C66.67 66 66.34 66 66 66 C66 47.19 66 28.38 66 9 C43.89 9 21.78 9 -1 9 C-0.67 6.03 -0.34 3.06 0 0 Z " fill="#327325" transform="translate(45,149)"/>
<path d="M0 0 C0.33 0 0.66 0 1 0 C1.37808219 6.30136986 1.37808219 6.30136986 -0.4375 9.65625 C-2.42500689 13.90951475 -2.79020612 17.73868973 -3.1875 22.375 C-3.3102832 23.59316406 -3.3102832 23.59316406 -3.43554688 24.8359375 C-4.11335312 31.94435929 -4.21192499 38.88075008 -3.5 46 C-3.4071875 46.94875 -3.314375 47.8975 -3.21875 48.875 C-3.11046875 49.926875 -3.11046875 49.926875 -3 51 C-5.70213849 48.53283007 -6.88211466 46.68625572 -7.14526367 42.92211914 C-7.29377817 27.30893377 -6.68367052 14.38774876 0 0 Z " fill="#528944" transform="translate(281,146)"/>
<path d="M0 0 C3.85073295 0.5714558 5.80735406 2.33188427 8.625 4.9375 C9.40101563 5.64777344 10.17703125 6.35804688 10.9765625 7.08984375 C12.33648213 8.37362889 13.67759959 9.67759959 15 11 C13.35 11.33 11.7 11.66 10 12 C9.67 10.35 9.34 8.7 9 7 C8.2575 6.855625 7.515 6.71125 6.75 6.5625 C4.47972261 6.09812508 2.24240521 5.58136431 0 5 C-0.33 6.32 -0.66 7.64 -1 9 C-1.66 9 -2.32 9 -3 9 C-3.12375 9.928125 -3.2475 10.85625 -3.375 11.8125 C-4 15 -4 15 -6 18 C-6.66 18 -7.32 18 -8 18 C-8.33 19.65 -8.66 21.3 -9 23 C-9.66 23 -10.32 23 -11 23 C-11.33 24.65 -11.66 26.3 -12 28 C-13.32 28.33 -14.64 28.66 -16 29 C-16 28.34 -16 27.68 -16 27 C-15.34 27 -14.68 27 -14 27 C-13.89816406 26.45859375 -13.79632813 25.9171875 -13.69140625 25.359375 C-12.82242393 22.39403419 -11.44527709 19.94475054 -9.9375 17.25 C-9.38964844 16.26515625 -8.84179688 15.2803125 -8.27734375 14.265625 C-7.85582031 13.51796875 -7.43429687 12.7703125 -7 12 C-6.34 12 -5.68 12 -5 12 C-4.87753906 11.42765625 -4.75507813 10.8553125 -4.62890625 10.265625 C-3.97237132 7.90046809 -3.06276488 5.92793203 -1.9375 3.75 C-1.57527344 3.04359375 -1.21304687 2.3371875 -0.83984375 1.609375 C-0.56269531 1.07828125 -0.28554688 0.5471875 0 0 Z " fill="#64A256" transform="translate(281,293)"/>
<path d="M0 0 C5.29312941 0.98020915 9.44243246 2.0375811 14 5 C18.38381838 7.27246292 22.42096009 9.11545036 27.375 9.5625 C31 10 31 10 33 11.375 C34 13 34 13 34 16 C35.65 16.33 37.3 16.66 39 17 C39 17.66 39 18.32 39 19 C40.32 19 41.64 19 43 19 C43 19.66 43 20.32 43 21 C44.32 21.33 45.64 21.66 47 22 C45.2890625 22.68359375 45.2890625 22.68359375 43 23 C40.8359375 21.84765625 40.8359375 21.84765625 38.375 20.0625 C33.49805794 16.78733063 28.57928989 14.3225385 23.1875 12 C15.30392178 8.6031931 7.63375179 4.92733211 0 1 C0 0.67 0 0.34 0 0 Z " fill="#579849" transform="translate(334,257)"/>
<path d="M0 0 C-3.66483313 3.92660692 -6.03686738 5.78584008 -11.4375 6.375 C-15.49809081 7.08738435 -16.97356608 8.29213807 -20 11 C-23.83429873 13.52256495 -27.70452438 15.4090831 -32 17 C-32.99 16.67 -33.98 16.34 -35 16 C-25.46602777 8.77263396 -12.36096563 -0.57492863 0 0 Z " fill="#3F6F34" transform="translate(341,99)"/>
<path d="M0 0 C0.99 0.66 1.98 1.32 3 2 C3 2.33 3 2.66 3 3 C14.88 3.33 26.76 3.66 39 4 C38.67 4.66 38.34 5.32 38 6 C32.21667592 7.02020436 26.48765503 7.19341113 20.625 7.1875 C19.37807373 7.1862915 19.37807373 7.1862915 18.10595703 7.18505859 C6.28265583 7.06712619 6.28265583 7.06712619 1 5 C0.67 4.34 0.34 3.68 0 3 C-0.99 2.34 -1.98 1.68 -3 1 C-2.01 0.67 -1.02 0.34 0 0 Z " fill="#7DC46F" transform="translate(335,380)"/>
<path d="M0 0 C0.33 0 0.66 0 1 0 C1.5 2.5625 1.5 2.5625 1 6 C-4.27315544 12.359989 -10.95029434 15.65838239 -19 17 C-20.89351735 17.11261583 -22.79068086 17.17456126 -24.6875 17.1875 C-25.64011719 17.20167969 -26.59273438 17.21585937 -27.57421875 17.23046875 C-30 17 -30 17 -32 15 C-31.00033203 14.96132813 -31.00033203 14.96132813 -29.98046875 14.921875 C-20.58118998 14.34345784 -11.39783405 12.13478921 -4 6 C-2.60644236 4.04148656 -1.25717453 2.04872887 0 0 Z " fill="#5FA94F" transform="translate(388,309)"/>
<path d="M0 0 C-2.58433932 3.11934289 -5.43150841 4.12617893 -9.1875 5.5 C-10.35796875 5.93054688 -11.5284375 6.36109375 -12.734375 6.8046875 C-13.81203125 7.19914062 -14.8896875 7.59359375 -16 8 C-17.31263404 8.54134177 -18.62515975 9.08294642 -19.9375 9.625 C-27.95878677 12.61164933 -36.45790613 14.22851461 -45 14 C-42.66785852 12.79371992 -40.50357861 11.8345262 -38 11 C-37.34 10.34 -36.68 9.68 -36 9 C-33.9911178 8.96811298 -31.97993744 8.94104942 -29.97265625 9.02734375 C-27.78493865 9.09667321 -27.78493865 9.09667321 -25 8 C-22.66700175 7.96045766 -20.33291811 7.95598268 -18 8 C-18 7.34 -18 6.68 -18 6 C-16.96875 5.566875 -15.9375 5.13375 -14.875 4.6875 C-12.44829307 3.6600636 -10.20333198 2.56979927 -7.875 1.3125 C-4.94342242 -0.0258289 -3.17294958 -0.27996614 0 0 Z " fill="#69B657" transform="translate(422,370)"/>
<path d="M0 0 C0.33 0 0.66 0 1 0 C1 4.29 1 8.58 1 13 C-20.45 13 -41.9 13 -64 13 C-60.02399866 11.01199933 -58.5797433 10.75407193 -54.31347656 10.77294922 C-53.17259583 10.77310028 -52.03171509 10.77325134 -50.85626221 10.77340698 C-49.01702179 10.78889084 -49.01702179 10.78889084 -47.140625 10.8046875 C-45.88111023 10.8075174 -44.62159546 10.81034729 -43.32391357 10.81326294 C-39.98326098 10.82255879 -36.64288331 10.84051417 -33.30230713 10.8626709 C-29.89036428 10.88316792 -26.47839298 10.89227288 -23.06640625 10.90234375 C-16.37752832 10.92440093 -9.68878003 10.95787633 -3 11 C-2.86722656 10.28972656 -2.73445313 9.57945312 -2.59765625 8.84765625 C-2.42105469 7.92855469 -2.24445313 7.00945312 -2.0625 6.0625 C-1.88847656 5.14597656 -1.71445313 4.22945312 -1.53515625 3.28515625 C-1 1 -1 1 0 0 Z " fill="#326C25" transform="translate(240,145)"/>
<path d="M0 0 C3.45331295 3.45331295 2.33897727 8.45803763 2.37109375 13.125 C2.37093262 13.86621094 2.37077148 14.60742188 2.37060547 15.37109375 C2.37488994 17.56855164 2.41092633 19.76384782 2.44921875 21.9609375 C2.52782758 32.17231075 0.9151179 41.22733564 -2 51 C-2.99 51 -3.98 51 -5 51 C-5.3553853 46.0246058 -4.23480046 43.38020891 -2 39 C-1.60612212 36.67612053 -1.26513915 34.34206251 -1 32 C-0.67 31.01 -0.34 30.02 0 29 C0.08358958 26.78910055 0.10731764 24.57573922 0.09765625 22.36328125 C0.09443359 21.06455078 0.09121094 19.76582031 0.08789062 18.42773438 C0.07953531 17.05598892 0.07107037 15.68424413 0.0625 14.3125 C0.05748335 12.92903805 0.05292073 11.54557437 0.04882812 10.16210938 C0.03702529 6.77469605 0.02056019 3.38736967 0 0 Z " fill="#469334" transform="translate(459,279)"/>
<path d="M0 0 C1.65 0 3.3 0 5 0 C5 0.66 5 1.32 5 2 C5.969375 1.7525 6.93875 1.505 7.9375 1.25 C13.4943661 0.42550564 18.1952398 3.3313452 22.8515625 6.1015625 C25.79872602 7.3340127 28.50723978 7.39511788 31.6875 7.5625 C37.90117647 7.90117647 37.90117647 7.90117647 39 9 C40.32 9 41.64 9 43 9 C43 9.99 43 10.98 43 12 C30.96521992 11.49005169 19.12865457 8.57069741 8 4 C6.5017173 3.43294162 5.00170731 2.87042598 3.5 2.3125 C2.345 1.879375 1.19 1.44625 0 1 C0 0.67 0 0.34 0 0 Z " fill="#5CB04B" transform="translate(288,372)"/>
<path d="M0 0 C0.99 0 1.98 0 3 0 C3 7.92 3 15.84 3 24 C2.34 24 1.68 24 1 24 C1 30.27 1 36.54 1 43 C0.67 43 0.34 43 0 43 C-0.16720754 37.03702281 -0.32780784 31.07391908 -0.48217773 25.1105957 C-0.53568003 23.08027305 -0.59101547 21.04999786 -0.64819336 19.01977539 C-0.7298755 16.10833986 -0.80505001 13.19679947 -0.87890625 10.28515625 C-0.90594131 9.3716188 -0.93297638 8.45808136 -0.96083069 7.51686096 C-1.01273771 5.34515498 -1.01189236 3.17229367 -1 1 C-0.67 0.67 -0.34 0.34 0 0 Z " fill="#538C42" transform="translate(173,158)"/>
<path d="M0 0 C4.38368346 1.29503204 7.87416598 2.98968806 11.6875 5.5 C12.61949219 6.1084375 13.55148437 6.716875 14.51171875 7.34375 C16.34162872 8.56177485 18.17097346 9.78064897 20 11 C19.37240135 13.92879371 18.41377341 16.36095629 17 19 C16.67 19 16.34 19 16 19 C16 16.36 16 13.72 16 11 C13.36 10.34 10.72 9.68 8 9 C8 8.01 8 7.02 8 6 C7.05125 5.87625 6.1025 5.7525 5.125 5.625 C2 5 2 5 0 3 C0 2.01 0 1.02 0 0 Z " fill="#39732F" transform="translate(434,110)"/>
<path d="M0 0 C3.55762116 0.41367688 4.24315633 1.72847955 6.6875 4.3125 C10.50786588 7.03342311 14.0472044 9.36993996 18.6875 10.3125 C18.6875 10.9725 18.6875 11.6325 18.6875 12.3125 C19.6775 12.3125 20.6675 12.3125 21.6875 12.3125 C21.6875 13.3025 21.6875 14.2925 21.6875 15.3125 C16.3337535 13.75597945 11.68599053 11.3307491 6.8125 8.6875 C6.02875 8.26726562 5.245 7.84703125 4.4375 7.4140625 C2.51857943 6.3843978 0.60272397 5.34902433 -1.3125 4.3125 C-1.3125 3.6525 -1.3125 2.9925 -1.3125 2.3125 C-1.9725 1.9825 -2.6325 1.6525 -3.3125 1.3125 C-2.3125 0.3125 -2.3125 0.3125 0 0 Z " fill="#63AD52" transform="translate(264.3125,355.6875)"/>
<path d="M0 0 C5.69497486 2.38394297 11.28601432 4.97344609 16.88671875 7.5703125 C20.23506769 9.10794828 23.60154324 10.57739019 27 12 C27 12.33 27 12.66 27 13 C21.89249916 13.53763167 18.34027321 12.11419558 13.74609375 10.15625 C9.23214978 8.25564201 4.61088422 6.64799664 0 5 C0 3.35 0 1.7 0 0 Z " fill="#408534" transform="translate(377,209)"/>
<path d="M0 0 C0 1.32 0 2.64 0 4 C-21.78 4 -43.56 4 -66 4 C-66 3.67 -66 3.34 -66 3 C-45.87 3 -25.74 3 -5 3 C-5 2.34 -5 1.68 -5 1 C-2 0 -2 0 0 0 Z " fill="#74BE5F" transform="translate(176,377)"/>
<path d="M0 0 C0.33 0.66 0.66 1.32 1 2 C0.67 2.99 0.34 3.98 0 5 C-0.66 5 -1.32 5 -2 5 C-2.66 9.29 -3.32 13.58 -4 18 C-3.34 18 -2.68 18 -2 18 C-2 18.66 -2 19.32 -2 20 C-2.99 20.33 -3.98 20.66 -5 21 C-6.70855022 24.00007271 -6.70855022 24.00007271 -8 27 C-8.66 26.67 -9.32 26.34 -10 26 C-10 24.35 -10 22.7 -10 21 C-9.34 21 -8.68 21 -8 21 C-7.92523438 20.32195312 -7.85046875 19.64390625 -7.7734375 18.9453125 C-6.71853298 11.47824327 -4.26553872 6.18368978 0 0 Z " fill="#38A220" transform="translate(264,323)"/>
<path d="M0 0 C0.99 0 1.98 0 3 0 C3 1.32 3 2.64 3 4 C2.34 4.66 1.68 5.32 1 6 C0.01 6 -0.98 6 -2 6 C-2 6.66 -2 7.32 -2 8 C-3.61974559 9.71230248 -5.2958946 11.37163262 -7 13 C-7.928125 13.928125 -8.85625 14.85625 -9.8125 15.8125 C-10.534375 16.534375 -11.25625 17.25625 -12 18 C-11.67 16.35 -11.34 14.7 -11 13 C-10.34 13 -9.68 13 -9 13 C-9.12181641 11.87851563 -9.12181641 11.87851563 -9.24609375 10.734375 C-9 8 -9 8 -7.28515625 6.015625 C-6.55167969 5.43296875 -5.81820313 4.8503125 -5.0625 4.25 C-4.33160156 3.65703125 -3.60070312 3.0640625 -2.84765625 2.453125 C-2.23792969 1.97359375 -1.62820313 1.4940625 -1 1 C-0.67 0.67 -0.34 0.34 0 0 Z " fill="#2A6D1B" transform="translate(300,122)"/>
<path d="M0 0 C0.33 0 0.66 0 1 0 C0.54803484 6.18781392 -1.55640966 10.56520685 -4.5625 15.9375 C-5.19961914 17.10635742 -5.19961914 17.10635742 -5.84960938 18.29882812 C-6.89012854 20.20449805 -7.94374418 22.10300722 -9 24 C-9.33 24 -9.66 24 -10 24 C-10.21327408 19.52124435 -9.8372666 16.11197762 -8 12 C-6.33333333 10.33333333 -4.66666667 8.66666667 -3 7 C-1.78166115 4.70722059 -0.90971444 2.44186508 0 0 Z " fill="#336727" transform="translate(443,139)"/>
<path d="M0 0 C0.82242187 0.27714844 1.64484375 0.55429687 2.4921875 0.83984375 C9.36402887 3.06962138 15.77302655 4.6737258 23 5 C19.53044028 7.14542823 16.90179136 7.15830138 12.875 7 C9.76530951 6.83268882 9.76530951 6.83268882 7 7 C6.34 7.66 5.68 8.32 5 9 C4.731875 8.21625 4.46375 7.4325 4.1875 6.625 C3.15185568 3.71885077 3.15185568 3.71885077 0 2 C0 1.34 0 0.68 0 0 Z " fill="#60AC50" transform="translate(326,319)"/>
<path d="M0 0 C0.93045933 2.55144824 1.08564091 3.74006478 0.22265625 6.359375 C-0.16019531 7.14828125 -0.54304688 7.9371875 -0.9375 8.75 C-1.31777344 9.54921875 -1.69804687 10.3484375 -2.08984375 11.171875 C-2.39019531 11.77515625 -2.69054687 12.3784375 -3 13 C-3.66 13 -4.32 13 -5 13 C-5.33 14.65 -5.66 16.3 -6 18 C-6.66 18 -7.32 18 -8 18 C-8.33 19.65 -8.66 21.3 -9 23 C-10.32 23.33 -11.64 23.66 -13 24 C-13 23.34 -13 22.68 -13 22 C-12.34 22 -11.68 22 -11 22 C-10.89816406 21.45859375 -10.79632813 20.9171875 -10.69140625 20.359375 C-9.82242393 17.39403419 -8.44527709 14.94475054 -6.9375 12.25 C-6.38964844 11.26515625 -5.84179688 10.2803125 -5.27734375 9.265625 C-4.85582031 8.51796875 -4.43429687 7.7703125 -4 7 C-3.34 7 -2.68 7 -2 7 C-1.855625 6.401875 -1.71125 5.80375 -1.5625 5.1875 C-1.1127561 3.43849596 -0.57107659 1.71322977 0 0 Z " fill="#6BAE5F" transform="translate(278,298)"/>
<path d="M0 0 C0.66 0.33 1.32 0.66 2 1 C-2.51346599 6.80302771 -6.4882013 10.62351179 -13 14 C-13.66 14 -14.32 14 -15 14 C-15 13.01 -15 12.02 -15 11 C-14.401875 10.731875 -13.80375 10.46375 -13.1875 10.1875 C-10.9700287 9.12703272 -10.9700287 9.12703272 -9.5 7.4375 C-8 6 -8 6 -5.9375 5.5625 C-3.79756686 5.18643677 -3.79756686 5.18643677 -2.875 3 C-2.58625 2.34 -2.2975 1.68 -2 1 C-1.34 0.67 -0.68 0.34 0 0 Z " fill="#51AE41" transform="translate(437,356)"/>
<path d="M0 0 C0.33 0 0.66 0 1 0 C1.22846772 3.8077953 1.33576115 6.35037516 -0.4375 9.78125 C-2.18759162 13.38643874 -2.70109897 16.40896083 -3.1875 20.375 C-3.34605469 21.62023437 -3.50460937 22.86546875 -3.66796875 24.1484375 C-3.77753906 25.08945313 -3.88710938 26.03046875 -4 27 C-4.33 27 -4.66 27 -5 27 C-5.63511169 16.66884978 -4.88118979 9.3614247 0 0 Z " fill="#437735" transform="translate(281,146)"/>
<path d="M0 0 C0.66 0.33 1.32 0.66 2 1 C-4.02230742 7.11031609 -8.33473835 11.02166401 -17 12 C-12.41452296 6.59568777 -6.36499882 3.02737019 0 0 Z " fill="#507D46" transform="translate(323,104)"/>
<path d="M0 0 C1.33333333 0.66666667 2.66666667 1.33333333 4 2 C5.051875 2.45375 6.10375 2.9075 7.1875 3.375 C8.115625 3.91125 9.04375 4.4475 10 5 C10.165 5.680625 10.33 6.36125 10.5 7.0625 C10.665 7.701875 10.83 8.34125 11 9 C13.92914165 10.17082878 13.92914165 10.17082878 17 11 C19 13 19 13 20 16 C17.0280615 14.87548273 14.66559313 13.77706209 12 12 C12 11.34 12 10.68 12 10 C11.42765625 9.74347656 10.8553125 9.48695313 10.265625 9.22265625 C7.77351217 7.87777467 5.86644919 6.31486882 3.75 4.4375 C3.04359375 3.81746094 2.3371875 3.19742188 1.609375 2.55859375 C1.07828125 2.04425781 0.5471875 1.52992188 0 1 C0 0.67 0 0.34 0 0 Z " fill="#85BB7D" transform="translate(293,229)"/>
<path d="M0 0 C0.66644531 0.06058594 1.33289063 0.12117188 2.01953125 0.18359375 C2.94121094 0.26738281 3.86289062 0.35117188 4.8125 0.4375 C5.80765625 0.5303125 6.8028125 0.623125 7.828125 0.71875 C9.92028945 0.90426212 12.01418052 1.07134938 14.109375 1.21875 C15.57117188 1.32703125 15.57117188 1.32703125 17.0625 1.4375 C17.96097656 1.49808594 18.85945313 1.55867188 19.78515625 1.62109375 C22 2 22 2 24 4 C19.49959329 5.50013557 15.49845146 4.40004029 10.875 3.6875 C9.94300781 3.55666016 9.01101563 3.42582031 8.05078125 3.29101562 C7.16519531 3.15759766 6.27960938 3.02417969 5.3671875 2.88671875 C4.55362793 2.76514404 3.74006836 2.64356934 2.90185547 2.51831055 C2.27424316 2.34726807 1.64663086 2.17622559 1 2 C0.67 1.34 0.34 0.68 0 0 Z " fill="#4D7A43" transform="translate(373,95)"/>
<path d="M0 0 C2.86724686 0.57344937 3.8614515 0.8614515 6 3 C6.22705078 5.06298828 6.22705078 5.06298828 6.1953125 7.5703125 C6.18886719 8.46621094 6.18242187 9.36210937 6.17578125 10.28515625 C6.15902344 11.22230469 6.14226562 12.15945313 6.125 13.125 C6.11597656 14.06988281 6.10695313 15.01476562 6.09765625 15.98828125 C6.07404522 18.32577292 6.04111516 20.66276123 6 23 C5.34 23 4.68 23 4 23 C4.03480469 22.07058594 4.06960938 21.14117187 4.10546875 20.18359375 C4.33873493 10.67474876 4.33873493 10.67474876 1 2 C0.67 1.34 0.34 0.68 0 0 Z " fill="#6DA960" transform="translate(385,286)"/>
<path d="M0 0 C0.66 0.33 1.32 0.66 2 1 C-0.97 5.455 -0.97 5.455 -4 10 C-5.98 9.01 -7.96 8.02 -10 7 C-10 6.34 -10 5.68 -10 5 C-7.03 5.495 -7.03 5.495 -4 6 C-3.566875 4.7934375 -3.566875 4.7934375 -3.125 3.5625 C-2 1 -2 1 0 0 Z " fill="#548C4C" transform="translate(431,165)"/>
<path d="M0 0 C0.33 0.99 0.66 1.98 1 3 C-1.93774463 3.05390357 -4.87450232 3.0936255 -7.8125 3.125 C-8.64587891 3.14175781 -9.47925781 3.15851563 -10.33789062 3.17578125 C-11.14033203 3.18222656 -11.94277344 3.18867188 -12.76953125 3.1953125 C-13.87711792 3.21102295 -13.87711792 3.21102295 -15.00708008 3.22705078 C-17 3 -17 3 -20 1 C-19.39671875 1.01160156 -18.7934375 1.02320313 -18.171875 1.03515625 C-17.37265625 1.04417969 -16.5734375 1.05320313 -15.75 1.0625 C-14.96109375 1.07410156 -14.1721875 1.08570313 -13.359375 1.09765625 C-8.80893228 0.90931011 -4.66288594 -0.08967088 0 0 Z " fill="#306B20" transform="translate(379,152)"/>
<path d="M0 0 C0.66 0.33 1.32 0.66 2 1 C1.67 1.99 1.34 2.98 1 4 C0.34 4 -0.32 4 -1 4 C-1.17015625 4.63808594 -1.3403125 5.27617187 -1.515625 5.93359375 C-1.75796875 6.75988281 -2.0003125 7.58617187 -2.25 8.4375 C-2.59804688 9.67306641 -2.59804688 9.67306641 -2.953125 10.93359375 C-4 13 -4 13 -6.109375 13.78515625 C-6.73328125 13.85605469 -7.3571875 13.92695313 -8 14 C-6.125 8.25 -6.125 8.25 -5 6 C-4.34 6 -3.68 6 -3 6 C-2.690625 5.195625 -2.38125 4.39125 -2.0625 3.5625 C-1 1 -1 1 0 0 Z " fill="#578649" transform="translate(290,131)"/>
<path d="M0 0 C1.32 0 2.64 0 4 0 C4 0.66 4 1.32 4 2 C3.34 2 2.68 2 2 2 C1.75507813 2.73605469 1.51015625 3.47210938 1.2578125 4.23046875 C-0.13627678 7.30006284 -1.6939196 8.99905253 -4.125 11.3125 C-4.84945313 12.00988281 -5.57390625 12.70726562 -6.3203125 13.42578125 C-6.87460937 13.94527344 -7.42890625 14.46476562 -8 15 C-8.66 14.67 -9.32 14.34 -10 14 C-9.360625 13.401875 -8.72125 12.80375 -8.0625 12.1875 C-5.79689611 10.09189663 -5.79689611 10.09189663 -5 7 C-4.01 7 -3.02 7 -2 7 C-2 6.01 -2 5.02 -2 4 C-1.34 4 -0.68 4 0 4 C0 2.68 0 1.36 0 0 Z " fill="#6CAC60" transform="translate(444,347)"/>
<path d="M0 0 C4.95 2.31 9.9 4.62 15 7 C10.65596224 8.08600944 7.2891669 8.35687021 3 7 C1.00607447 4.56990326 0 3.16090285 0 0 Z " fill="#6BB15B" transform="translate(296,304)"/>
<path d="M0 0 C6.20477864 1.93624298 12.10825719 4.25609141 18 7 C18 7.33 18 7.66 18 8 C12.17728663 8.59720137 8.0790596 6.528243 3 4 C3 3.34 3 2.68 3 2 C2.01 1.67 1.02 1.34 0 1 C0 0.67 0 0.34 0 0 Z " fill="#4F8C40" transform="translate(386,214)"/>
<path d="M0 0 C2.64 0 5.28 0 8 0 C7.67 0.99 7.34 1.98 7 3 C1.83595969 4.69166838 -2.5964423 5.22514824 -8 5 C-5.66785852 3.79371992 -3.50357861 2.8345262 -1 2 C-0.67 1.34 -0.34 0.68 0 0 Z " fill="#52A93E" transform="translate(385,379)"/>
<path d="M0 0 C4.92908146 3.87792288 8.5423711 7.76116833 12 13 C11.34 13.66 10.68 14.32 10 15 C9.7525 14.38125 9.505 13.7625 9.25 13.125 C8.18539778 10.85708859 8.18539778 10.85708859 6 10.0625 C3.25025956 8.60170039 3.02385252 6.85216059 2 4 C1.34 3.67 0.68 3.34 0 3 C0 2.01 0 1.02 0 0 Z " fill="#689A5D" transform="translate(438,245)"/>
<path d="M0 0 C1 2 1 2 0.375 4 C-1 6 -1 6 -3.25 6.875 C-7.12683859 8.46097942 -9.14939702 10.95051774 -12 14 C-12.66 13.67 -13.32 13.34 -14 13 C-12.38113585 11.32737283 -10.7547271 9.66204463 -9.125 8 C-8.22007812 7.071875 -7.31515625 6.14375 -6.3828125 5.1875 C-4 3 -4 3 -2 3 C-2 2.34 -2 1.68 -2 1 C-1.34 0.67 -0.68 0.34 0 0 Z " fill="#648E5A" transform="translate(305,116)"/>
<path d="M0 0 C-1 3 -1 3 -3 4 C-4.83037287 4.12145993 -6.66564133 4.17543185 -8.5 4.1875 C-9.4796875 4.20167969 -10.459375 4.21585937 -11.46875 4.23046875 C-14 4 -14 4 -16 2 C-15.22914063 1.93941406 -14.45828125 1.87882812 -13.6640625 1.81640625 C-12.15972656 1.69072266 -12.15972656 1.69072266 -10.625 1.5625 C-9.62726563 1.48128906 -8.62953125 1.40007812 -7.6015625 1.31640625 C-4.67763349 0.96079326 -3.00138805 0 0 0 Z " fill="#72B55A" transform="translate(372,322)"/>
<path d="M0 0 C4.04256383 1.22217046 7.49288959 2.62754296 11 5 C11 5.33 11 5.66 11 6 C9.54077307 5.88590407 8.08259402 5.75834456 6.625 5.625 C5.40683594 5.52058594 5.40683594 5.52058594 4.1640625 5.4140625 C2 5 2 5 0 3 C0 2.01 0 1.02 0 0 Z " fill="#4B803D" transform="translate(434,110)"/>
<path d="M0 0 C7 3 7 3 14 6 C10.15868739 7.47742793 7.7565961 6.3587688 4 5 C3.01 5 2.02 5 1 5 C0.67 3.35 0.34 1.7 0 0 Z " fill="#63AE4C" transform="translate(311,312)"/>
<path d="M0 0 C-2.13790949 2.35170044 -4.00593401 3.88791835 -7 5 C-10.25 5.125 -10.25 5.125 -13 5 C-8.55011262 1.27171598 -5.82569178 -0.15745113 0 0 Z " fill="#61B54F" transform="translate(422,370)"/>
<path d="M0 0 C2.6875 0.375 2.6875 0.375 5 2.875 C5.8353125 4.1125 5.8353125 4.1125 6.6875 5.375 C0.9375 5.5 0.9375 5.5 -1.3125 4.375 C-1.3125 3.715 -1.3125 3.055 -1.3125 2.375 C-1.9725 2.045 -2.6325 1.715 -3.3125 1.375 C-2.3125 0.375 -2.3125 0.375 0 0 Z " fill="#56A743" transform="translate(264.3125,355.625)"/>
<path d="M0 0 C0.33 0.99 0.66 1.98 1 3 C0.67 3.66 0.34 4.32 0 5 C0.66 5.33 1.32 5.66 2 6 C1.01 8.31 0.02 10.62 -1 13 C-1.66 12.67 -2.32 12.34 -3 12 C-3.34833144 7.12335991 -2.41685712 4.22949995 0 0 Z " fill="#3FA130" transform="translate(457,318)"/>
<path d="M0 0 C5.13604912 1.7410336 8.92000285 3.30250259 13 7 C11 8 11 8 8.9375 7.6875 C7 7 7 7 6 5 C5.175 4.690625 4.35 4.38125 3.5 4.0625 C2.675 3.711875 1.85 3.36125 1 3 C0.67 2.01 0.34 1.02 0 0 Z " fill="#639A56" transform="translate(404,222)"/>
<path d="M0 0 C0 1.32 0 2.64 0 4 C-0.66 4 -1.32 4 -2 4 C-2.33 4.99 -2.66 5.98 -3 7 C-4.32 6.67 -5.64 6.34 -7 6 C-6.34 5.34 -5.68 4.68 -5 4 C-5.33 3.01 -5.66 2.02 -6 1 C-3 0 -3 0 0 0 Z " fill="#316F21" transform="translate(343,163)"/>
<path d="M0 0 C1.98 0 3.96 0 6 0 C6 0.66 6 1.32 6 2 C7.11375 2.103125 8.2275 2.20625 9.375 2.3125 C11.169375 2.6528125 11.169375 2.6528125 13 3 C13.99 4.485 13.99 4.485 15 6 C11.48294042 5.34728444 8.10674923 4.48606976 4.6875 3.4375 C3.80449219 3.16808594 2.92148437 2.89867187 2.01171875 2.62109375 C1.34785156 2.41613281 0.68398438 2.21117187 0 2 C0 1.34 0 0.68 0 0 Z " fill="#628F58" transform="translate(391,157)"/>
<path d="M0 0 C1.45922693 0.11409593 2.91740598 0.24165544 4.375 0.375 C5.59316406 0.47941406 5.59316406 0.47941406 6.8359375 0.5859375 C9 1 9 1 11 3 C7.42355152 4.2380014 4.66305234 3.74926071 1 3 C0.67 2.01 0.34 1.02 0 0 Z " fill="#3C6B33" transform="translate(398,99)"/>
<path d="M0 0 C3.96 1.98 7.92 3.96 12 6 C9.31596792 7.34201604 8.2569869 6.70405525 5.4375 5.8125 C4.22900391 5.45091797 4.22900391 5.45091797 2.99609375 5.08203125 C2.00802734 4.54642578 2.00802734 4.54642578 1 4 C0.67 2.68 0.34 1.36 0 0 Z " fill="#61A055" transform="translate(355,198)"/>
<path d="M0 0 C3.99500618 1.3697164 6.80009492 3.25722422 10 6 C9.67 7.32 9.34 8.64 9 10 C6.5 8.1875 6.5 8.1875 4 6 C4 5.01 4 4.02 4 3 C2.68 2.34 1.36 1.68 0 1 C0 0.67 0 0.34 0 0 Z " fill="#4B833F" transform="translate(345,192)"/>
<path d="M0 0 C6.60929383 1.00413308 10.79229827 2.78951775 16 7 C12.13525139 7 9.79505542 5.65507584 6.3125 4 C5.13300781 3.443125 3.95351563 2.88625 2.73828125 2.3125 C1.83464844 1.879375 0.93101562 1.44625 0 1 C0 0.67 0 0.34 0 0 Z " fill="#72B068" transform="translate(334,257)"/>
<path d="M0 0 C1.9375 0.5625 1.9375 0.5625 4 2 C4.75 5.625 4.75 5.625 5 9 C3.0625 8.4375 3.0625 8.4375 1 7 C0.25 3.375 0.25 3.375 0 0 Z " fill="#4A833F" transform="translate(279,204)"/>
<path d="M0 0 C0.99 0.495 0.99 0.495 2 1 C2 1.99 2 2.98 2 4 C2.66 4 3.32 4 4 4 C7 9.75 7 9.75 7 12 C6.01 12 5.02 12 4 12 C3.34 10.68 2.68 9.36 2 8 C1.67 8 1.34 8 1 8 C0.67 5.36 0.34 2.72 0 0 Z " fill="#6AA95D" transform="translate(450,259)"/>
<path d="M0 0 C0.66 0 1.32 0 2 0 C1.39174965 4.34464536 0.73832608 8.67551867 0 13 C-0.66 13 -1.32 13 -2 13 C-1.85966889 11.02043559 -1.7125877 9.04134859 -1.5625 7.0625 C-1.48128906 5.96035156 -1.40007812 4.85820312 -1.31640625 3.72265625 C-1 1 -1 1 0 0 Z " fill="#559F44" transform="translate(459,310)"/>
<path d="M0 0 C1.32 0.33 2.64 0.66 4 1 C3.01 1.33 2.02 1.66 1 2 C0.32060826 3.99571323 -0.34561559 5.99594773 -1 8 C-1.99 8.66 -2.98 9.32 -4 10 C-3.67 8.02 -3.34 6.04 -3 4 C-2.34 4 -1.68 4 -1 4 C-0.67 2.68 -0.34 1.36 0 0 Z " fill="#379722" transform="translate(281,298)"/>
<path d="M0 0 C0.90105469 0.00902344 1.80210937 0.01804687 2.73046875 0.02734375 C3.41753906 0.03894531 4.10460937 0.05054688 4.8125 0.0625 C4.4825 0.7225 4.1525 1.3825 3.8125 2.0625 C1.8515625 2.546875 1.8515625 2.546875 -0.5625 2.8125 C-1.35398437 2.91046875 -2.14546875 3.0084375 -2.9609375 3.109375 C-5.1875 3.0625 -5.1875 3.0625 -8.1875 1.0625 C-5.17259443 0.05753148 -3.14568308 -0.04085303 0 0 Z " fill="#69BF53" transform="translate(369.1875,383.9375)"/>
<path d="M0 0 C1.43655854 -0.08131463 2.8744483 -0.13933559 4.3125 -0.1875 C5.51326172 -0.23970703 5.51326172 -0.23970703 6.73828125 -0.29296875 C9.48924414 0.06337359 10.32224589 0.84443889 12 3 C12 3.33 12 3.66 12 4 C10.35 4 8.7 4 7 4 C7 3.34 7 2.68 7 2 C5.02 2 3.04 2 1 2 C0.67 1.34 0.34 0.68 0 0 Z " fill="#43A32D" transform="translate(286,370)"/>
<path d="M0 0 C0.33 0.66 0.66 1.32 1 2 C0.67 2.99 0.34 3.98 0 5 C-0.66 5 -1.32 5 -2 5 C-2.33 6.98 -2.66 8.96 -3 11 C-3.99 11.33 -4.98 11.66 -6 12 C-4.43358249 7.69235185 -2.31663844 3.93828536 0 0 Z " fill="#79B66E" transform="translate(264,323)"/>
<path d="M0 0 C1.32 0 2.64 0 4 0 C3.37240135 2.92879371 2.41377341 5.36095629 1 8 C0.67 8 0.34 8 0 8 C0 5.36 0 2.72 0 0 Z " fill="#518349" transform="translate(450,121)"/>
<path d="M0 0 C3.8063457 0.67170806 7.35206816 1.72746564 11 3 C10.34 3.66 9.68 4.32 9 5 C8.67 4.67 8.34 4.34 8 4 C6.48834346 3.60851239 4.96530368 3.26027543 3.4375 2.9375 C2.61121094 2.76089844 1.78492188 2.58429688 0.93359375 2.40234375 C0.29550781 2.26957031 -0.34257812 2.13679688 -1 2 C-0.67 1.34 -0.34 0.68 0 0 Z " fill="#527B48" transform="translate(417,104)"/>
<path d="M0 0 C0 1.32 0 2.64 0 4 C-2.97 4 -5.94 4 -9 4 C-7.68 3.67 -6.36 3.34 -5 3 C-5 2.34 -5 1.68 -5 1 C-2 0 -2 0 0 0 Z " fill="#74BD6A" transform="translate(176,377)"/>
<path d="M0 0 C1.32 0 2.64 0 4 0 C4.33 2.31 4.66 4.62 5 7 C4.34 7 3.68 7 3 7 C2.67 5.68 2.34 4.36 2 3 C1.34 3 0.68 3 0 3 C0 2.01 0 1.02 0 0 Z " fill="#588850" transform="translate(284,216)"/>
<path d="M0 0 C0 0.99 0 1.98 0 3 C-3.63 2.67 -7.26 2.34 -11 2 C-11 1.67 -11 1.34 -11 1 C-7.26513121 0.4254048 -3.78706732 0 0 0 Z " fill="#68B658" transform="translate(331,381)"/>
<path d="M0 0 C0 0.66 0 1.32 0 2 C-3.63 2 -7.26 2 -11 2 C-7.06425135 -0.62383243 -4.54354105 -1.51451368 0 0 Z " fill="#41A52B" transform="translate(171,378)"/>
<path d="M0 0 C0.33 0 0.66 0 1 0 C1.05399736 1.45792884 1.09279177 2.91642712 1.125 4.375 C1.14820313 5.18710938 1.17140625 5.99921875 1.1953125 6.8359375 C1 9 1 9 -1 11 C-2.26264601 6.70700357 -1.62950412 4.12168689 0 0 Z " fill="#2F7220" transform="translate(337,172)"/>
<path d="M0 0 C0.66 0 1.32 0 2 0 C2 0.66 2 1.32 2 2 C2.66 2.33 3.32 2.66 4 3 C3.01 3.33 2.02 3.66 1 4 C1 5.65 1 7.3 1 9 C0.34 9 -0.32 9 -1 9 C-0.67 6.03 -0.34 3.06 0 0 Z " fill="#387729" transform="translate(45,149)"/>
<path d="M0 0 C1.32 0 2.64 0 4 0 C4 0.66 4 1.32 4 2 C4.99 2 5.98 2 7 2 C7 2.99 7 3.98 7 5 C4.0625 4.1875 4.0625 4.1875 1 3 C0.67 2.01 0.34 1.02 0 0 Z " fill="#55AE44" transform="translate(279,366)"/>
<path d="M0 0 C0.66 0.33 1.32 0.66 2 1 C1.38722388 3.96175123 0.74627478 5.38058783 -1 8 C-2 7 -2 7 -2.0625 4.4375 C-2.041875 3.633125 -2.02125 2.82875 -2 2 C-1.34 2 -0.68 2 0 2 C0 1.34 0 0.68 0 0 Z " fill="#32A81A" transform="translate(256,342)"/>
<path d="M0 0 C3.16115776 1.36983503 3.9927092 1.9890638 6 5 C4.35 5 2.7 5 1 5 C0.67 3.35 0.34 1.7 0 0 Z " fill="#609757" transform="translate(432,240)"/>
<path d="M0 0 C1.32 0 2.64 0 4 0 C4 0.99 4 1.98 4 3 C4.99 3 5.98 3 7 3 C6.67 3.99 6.34 4.98 6 6 C3.37812506 4.95125002 2.20628639 4.35068687 0.75 1.875 C0.5025 1.25625 0.255 0.6375 0 0 Z " fill="#448837" transform="translate(311,242)"/>
<path d="M0 0 C1.46067199 0.45082469 2.91848032 0.91093537 4.375 1.375 C5.18710937 1.63023437 5.99921875 1.88546875 6.8359375 2.1484375 C9 3 9 3 11 5 C5.25 5.125 5.25 5.125 3 4 C3 3.34 3 2.68 3 2 C2.01 1.67 1.02 1.34 0 1 C0 0.67 0 0.34 0 0 Z " fill="#68A15E" transform="translate(386,214)"/>
<path d="M0 0 C0 0.66 0 1.32 0 2 C-0.66 2 -1.32 2 -2 2 C-2.33 2.99 -2.66 3.98 -3 5 C-4.32 4.67 -5.64 4.34 -7 4 C-4.83989616 0.75984424 -3.8842653 0 0 0 Z " fill="#327122" transform="translate(350,157)"/>
<path d="M0 0 C0.66 0.33 1.32 0.66 2 1 C0.68 3.64 -0.64 6.28 -2 9 C-2.33 9 -2.66 9 -3 9 C-2.67 6.69 -2.34 4.38 -2 2 C-1.34 2 -0.68 2 0 2 C0 1.34 0 0.68 0 0 Z " fill="#5D8E53" transform="translate(447,133)"/>
<path d="M0 0 C-1.28965176 1.37562854 -2.62689293 2.70766393 -4 4 C-4.66 4 -5.32 4 -6 4 C-6 3.34 -6 2.68 -6 2 C-6.66 1.67 -7.32 1.34 -8 1 C-5.29120665 -0.35439668 -2.99066732 -0.06501451 0 0 Z " fill="#4A753E" transform="translate(341,99)"/>
<path d="M0 0 C0.99 0.66 1.98 1.32 3 2 C2.67 2.66 2.34 3.32 2 4 C3.32 4 4.64 4 6 4 C6 4.66 6 5.32 6 6 C3.5625 5.625 3.5625 5.625 1 5 C0.67 4.34 0.34 3.68 0 3 C-0.99 2.34 -1.98 1.68 -3 1 C-2.01 0.67 -1.02 0.34 0 0 Z " fill="#59BF38" transform="translate(335,380)"/>
<path d="M0 0 C2.31 0.33 4.62 0.66 7 1 C6.67 1.99 6.34 2.98 6 4 C3.83125748 3.49396008 2.00032373 3.00016187 0 2 C0 1.34 0 0.68 0 0 Z " fill="#40972D" transform="translate(304,311)"/>
<path d="M0 0 C1.65 0 3.3 0 5 0 C5.33 1.65 5.66 3.3 6 5 C4.02 4.01 2.04 3.02 0 2 C0 1.34 0 0.68 0 0 Z " fill="#6FA953" transform="translate(379,280)"/>
<path d="M0 0 C0.99 0 1.98 0 3 0 C3 0.99 3 1.98 3 3 C4.32 3.66 5.64 4.32 7 5 C6.67 5.66 6.34 6.32 6 7 C4.68 6.34 3.36 5.68 2 5 C2 4.01 2 3.02 2 2 C1.34 2 0.68 2 0 2 C0 1.34 0 0.68 0 0 Z " fill="#408630" transform="translate(435,245)"/>
<path d="M0 0 C2.86724686 0.57344937 3.8614515 0.8614515 6 3 C6.33 3.99 6.66 4.98 7 6 C2.32307692 4.52307692 2.32307692 4.52307692 0.6875 1.875 C0.460625 1.25625 0.23375 0.6375 0 0 Z " fill="#67A35B" transform="translate(306,239)"/>
<path d="M0 0 C0.99 0.33 1.98 0.66 3 1 C2.39816251 3.02045442 1.72693904 5.02111039 1 7 C0.01 7.495 0.01 7.495 -1 8 C-1.125 2.25 -1.125 2.25 0 0 Z " fill="#437638" transform="translate(434,155)"/>
<path d="M0 0 C0.66 0.33 1.32 0.66 2 1 C0.35 2.65 -1.3 4.3 -3 6 C-3.33 5.01 -3.66 4.02 -4 3 C-3 1 -3 1 0 0 Z " fill="#2D681E" transform="translate(309,115)"/>
<path d="M0 0 C0.33 0.99 0.66 1.98 1 3 C-2.3 2.67 -5.6 2.34 -9 2 C-5.23312136 0.11656068 -3.97041037 -0.22057835 0 0 Z " fill="#759D69" transform="translate(385,154)"/>
</svg>
